<?xml version="1.0" encoding="UTF-8"?><svg xmlns="http://www.w3.org/2000/svg" xmlns:xlink="http://www.w3.org/1999/xlink" height="3008.6" preserveAspectRatio="xMidYMid meet" version="1.0" viewBox="0.0 -1.9 2281.0 3008.6" width="2281.0" zoomAndPan="magnify"><g><g fill="#EABF8B" id="change1_1"><path d="M1780.52,307.53c-15.98,39.31-25.77,80.41-35.19,121.6c-4.67,20.43-9.26,40.89-12.31,61.64 c-1.45,9.89-0.94,10.44,7.99,14.39c17.65,7.79,35.46,15.25,53.04,23.21c34.87,15.8,69.62,31.88,101.35,53.64 c30.52,20.93,59.34,44.07,87.62,67.89c2.43,2.05,4.42,4.93,7.93,5.43c1.62-2.36,0.58-4.68,0.39-6.87 c-1.45-16.58-3.81-33.1-3.91-49.76c-0.24-38.06,4.39-75.71,10.64-113.16c5.37-32.17,10.61-64.36,12.8-96.93 c4.32-64.07-7.37-125.74-26.87-186.55c-19.68-61.36-57.44-108.92-107.62-147.74c-3.41-2.63-6.69-5.61-11.26-6.06 c-4.96-0.49-7.79-0.71-8.35,6.37c-1.36,17.24-3.49,34.43-5.55,51.61c-4.74,39.54-13.78,77.85-30.89,114.13 C1806.7,249.25,1792.56,277.91,1780.52,307.53z M1842.28,192.68c5.26-2.55,5.72,4.82,7.58,8.13 c29.1,51.84,43.86,108.31,52.87,166.51c2.5,16.13,1.7,32.56,1.43,48.84c2.1,43.96-6.84,86.09-21,127.33 c-1.06,3.09-1.02,9.17-5.47,7.82c-5.03-1.53-0.93-6.41-0.01-9.39c7.29-23.53,15.12-46.97,17.74-71.57 c5.28-49.58,4.33-98.74-6.86-147.84c-9.55-41.91-24.31-81.49-43.84-119.55C1843.06,199.72,1838.22,194.65,1842.28,192.68z M1824.95,326.49c4.15-0.96,3.7,5.24,4.56,8.54c5.75,21.97,8.67,44.32,8.7,67.06c0.64,33.45-1.88,66.44-15.86,97.5 c-1.4,3.12-1.51,9.82-6.76,7.42c-3.77-1.72,0.14-6.57,1.53-9.61c10.99-24.07,14.51-49.74,15.3-75.73 c0.86-28.62-1.05-57.13-8.3-85.07C1823.28,333.39,1819.53,327.75,1824.95,326.49z" fill="inherit"/><path d="M272.71,2396.31c-6.86-34.23-9.78-68.43-5.11-103.18c1.72-12.84,4.82-25.41,7.27-39.97 c-26.78,6.33-51.93,12.63-75.28,24.14c-31.43,15.49-61.11,33.91-88.45,55.94c-39.94,32.18-66.16,73.46-79.96,122.57 c-12.66,45.03,9.8,97.08,61.23,112.06c37.98,11.07,76.45,13.94,115.46,5.77c38.46-8.05,73.13-24.14,104.09-48.33 c7.15-5.59,7.45-5.36,3.22-13.27C295.62,2475.45,280.89,2437.17,272.71,2396.31z" fill="inherit"/><path d="M1149.88,303.45c31.48-13.3,63.43-24.4,98.46-21.29c1.09,0.1,1.78-0.44,2.01-2.05 c-7.49-5.14-14.82-10.88-21.04-17.88c-6.19-6.97-12.43-13.9-18.45-21.02c-26.04-30.76-50.73-62.59-75.02-94.73 c-25.71-34.01-48.92-69.76-72.65-105.15c-2.88-4.3-5.93-8.49-8.9-12.74c-6.17,75.59,25.14,264.38,47.73,299.33 C1117.37,318.65,1133.32,310.45,1149.88,303.45z" fill="inherit"/><path d="M1012.26,391.58c2.78,0.32,3.87-1.11,5.11-2.11c22.1-17.69,45.09-34.18,68.15-50.57 c7.25-5.15,7.28-5.12,4.42-13.53c-8.59-25.19-16.54-50.57-21.79-76.7c-2.51-12.49-4.9-24.99-7.66-39.16 c-4.48,6.17-5.58,11.68-6.86,17c-9.01,37.52-11.87,75.47-8.13,113.93c0.36,3.68,3.58,10.38-2,10.8 c-4.24,0.32-3.18-6.92-3.72-10.95c-3.08-22.91-1.89-45.87,0.24-68.74c2.1-22.56,5.52-44.96,14.68-65.94 c2.97-6.79,3.1-13.2,1.88-20.32c-3.98-23.27-7.52-46.6-9.45-70.17c-1.82-22.22-2.71-44.49-3.85-68.53 c-3.67,5.76-4.37,10.39-5.66,14.76c-16.97,57.58-29.51,115.95-32.64,176.13c-1.98,37.91-4.15,75.78,0.61,113.63 C1007.3,364.75,1008.97,378.45,1012.26,391.58z" fill="inherit"/><path d="M2251.48,1897.06c-4.02-60.48-9.05-120.87-15.05-181.18c-5.86-58.97-12.34-117.88-19.18-176.74 c-7.18-61.84-14.75-123.63-22.77-185.36c-8.32-64.03-17.54-127.95-27.42-191.76c-9.89-63.85-22.24-127.17-38.9-189.63 c-19.31-72.39-42.39-143.6-66.06-214.64c-19.98-59.98-38.56-120.41-59.47-180.08c-1.18-3.38-1.42-7.49-5.29-10.42 c-1.81,26.23-0.3,51.46,2.7,76.63c0.99,8.26,1.99,16.52,2.9,24.79c0.23,2.08-0.33,4.08-2.38,5.08c-1.97,0.96-3.87,0.51-5.47-1.02 c-0.96-0.92-1.84-1.93-2.84-2.81c-30.36-26.54-61.62-51.94-94.49-75.34c-33.84-24.09-71.14-41.7-108.87-58.54 c-18.23-8.14-36.51-16.19-54.89-23.97c-7.88-3.34-11.23-8.95-10.66-17.21c0.18-2.65,0.46-5.31,0.98-7.91 c3.64-18.27,7.04-36.6,11.1-54.78c9.57-42.88,19.71-85.63,36.11-126.56c10.9-27.21,24.02-53.42,36.37-79.98 c11.39-24.49,21.63-49.38,27.01-76.01c4.35-21.55,7.42-43.3,9.99-65.12c0.99-8.43,1.59-16.91,2.51-26.91 c-5.14,3.19-7.56,6.75-10.25,9.94c-15.25,18.07-30.58,36.08-45.58,54.36c-45.91,55.94-93.9,109.91-148.16,158.02 c-13.21,11.71-26.25,23.6-40.12,34.56c-7.41,5.85-15.59,8.46-25.03,8.11c-11.4-0.42-22.44-2.59-33.43-5.44 c-28.37-7.35-56.77-14.18-86.31-15.43c-47.59-2.02-95.17-4.47-142.82-3.11c-13.15,0.37-25.81-1.48-38.32-5.51 c-21.05-6.79-42.83-7.51-64.2-3.45c-45.81,8.7-87.1,28.48-125.34,54.8c-74.95,51.6-141.57,112.91-205.49,177.25 c-6.1,6.14-12,12.43-17.71,18.87c-4.69,5.28-9.24,10.67-13.69,16.13c-1.43,1.76-2.85,3.52-4.26,5.3c-3,3.78-5.95,7.6-8.84,11.46 c-0.11,0.15-0.23,0.3-0.34,0.45c-13.73,18.36-26.34,37.58-38.11,57.41c0,0,0,0,0,0c18.7,3.21,35.4,11.26,51.14,21.49 c4.8,3.12,8.75,7.19,10.03,13.17c1.53,7.14,3.89,14.3,2.81,21.62c-2.7,18.37-4.95,36.87-11.7,54.38 c-5.44,14.1-8.79,28.58-8.02,43.8c0.49,9.67,3.03,19.01,5.1,28.39c3.43,15.54,11.16,27.87,25.43,36.45 c11.28,6.78,22.22,14.16,35.05,20.21c-3.92,1.78-7.36,0.39-9.7,2.79c5.01,0.84,9.92-0.41,14.88-0.61 c24.65-0.97,49.27-0.58,73.4,5.19c15.93,3.81,30.75,10.59,44.82,18.99c16.39,9.79,26.28,24.06,29.56,42.88 c9.13-2.48,18.35-4.51,27.66-5.9c1.33-0.2,2.66-0.38,3.99-0.56c2.13-0.27,4.27-0.51,6.42-0.72c4.29-0.4,8.59-0.66,12.92-0.74 c19.64-0.39,39.3-0.17,58.95-0.15c3.98,0.01,7.91,0.36,11.89,1.05c28.81,5.01,57.77,8.82,87.07,8.84 c21.6,0.02,43.17,0.2,64.81-1.46c28.87-2.22,57.47-5.48,85.56-12.52c51.1-12.79,96.01-36.64,133.48-74.14 c13.48-13.49,25.49-28.06,36.17-43.77c3.29-4.83,7.2-8.61,12.57-10.98c7-3.09,13.86-6.48,20.87-9.54 c19.49-8.52,39-16.99,60.1-20.89c14.38-2.66,28.86-4.29,43.45-5.33c24.63-1.77,49.04-2.51,72.77,6.37 c13.13,4.91,25.68,10.98,38.22,17.14c7.82,3.84,15.49,7.69,19.94,15.87c1.05,1.92,3.15,3.53,5.13,4.63 c4.22,2.33,7.28,5.85,10.26,9.38c10.67,12.68,19.74,26.54,28.98,40.25c8.56,12.7,15.43,26.43,21.38,40.53 c7.39,17.51,12.84,35.66,14.24,54.73c1.97,26.92-2.89,52.93-11.15,78.44c-9.45,29.19-21.97,57.11-35.56,84.52 c-18.48,37.27-36.25,74.8-50.95,113.78c-16.21,43-25.65,87.18-26.27,133.18c-0.08,6.32,0.5,12.77-0.54,18.94 c-1.84,10.97-1.47,21.96-0.94,32.86c0.69,14.38,3.93,28.38,12.25,40.54c6.61,9.66,14.99,17.7,24.08,25.09 c26.04,21.19,56,31.96,89.32,31.57c20.28-0.24,40.1-4.82,58.97-12.98c25.34-10.96,49.78-23.81,74.75-35.53 c10.24-4.81,20.63-9.14,31.68-11.91c10.76-2.69,21.62-3.63,32.63-2.99c11.85,0.69,14.84,3.84,15.61,15.96 c0.19,2.99-0.02,6.03,0.46,8.97c3.95,24.22,7.45,48.53,12.16,72.6c8.05,41.12,12.7,82.68,14.94,124.38 c1.7,31.81,2.73,63.85-1.41,95.7c-2.92,22.46-9.97,43.43-23.34,61.86c-17.77,24.49-38.95,45.21-65.79,59.98 c-23.74,13.06-44.98,29.55-63.52,49.48c-8.09,8.7-14.12,18.55-18.44,29.42c-2.81,7.06-5.16,14.62-3.97,22.28 c0.98,6.29,1.18,12.57,1.68,18.86c1.77,0.35,2.78,1.34,3.44,3.11c7.16,18.95,19.62,34.55,32.13,50.06 c24.97,30.95,51.56,60.62,74.58,93.1c15.16,21.39,25.58,45.17,28.87,71.29c3.34,26.45-3.23,50.56-19.98,71.92 c-7.92,10.1-17.37,18.04-27.59,25.52c-11.86,8.69-25.36,8.73-38.25,6.11c-18.18-3.7-36.4-6.67-54.78-8.89 c-3.94-0.48-8.02-0.56-11.96-0.14c-16.81,1.76-33.48,4.3-49.58,9.72c-4.44,1.5-8.89,2.79-13.65,1.88c0,0,0-0.01,0.01-0.01 c0.01-0.04,0.08-0.22,0.08-0.22c-1.09,3.04-3.62,2.4-5.91,2.36c-1.1,2.11-3.12,1.98-5.07,2.03c0,0,0,0,0,0 c-1.33-0.04-2.54,0.25-3.68,0.71c-0.28,0.11-0.55,0.24-0.81,0.37c-0.1,0.05-0.21,0.09-0.31,0.14c-0.04,0.02-0.08,0.04-0.12,0.06 c-0.49,0.25-0.96,0.51-1.44,0.78c-0.33,0.19-0.67,0.38-1,0.56c-0.59,0.33-1.18,0.66-1.78,0.95 c-46.98,22.56-90.14,51.5-133.7,79.79c-1.82,1.18-4.33,1.89-4.52,5.42c9.68,3.14,19.81,4.33,29.95,5.33 c34.49,3.4,69.09,4.99,103.72,6.06c2,0.06,4.01,0.06,5.98,0.37c2.44,0.38,4.68,1.57,4.7,4.32c0.03,3.36-2.53,4.42-5.4,4.59 c-2.32,0.14-4.66,0.1-6.99-0.01c-25.95-1.3-51.91-2.32-77.83-4.05c-17.59-1.17-35.26-2.34-52.46-6.58 c-38.45-9.48-76.39-20.73-113.8-33.79c-24.28-8.47-49.06-15.02-74.83-16.64c-57.75-3.63-112.76,8.01-164.84,32.45 c-46.83,21.98-88.47,52.73-131.52,81.03c0.71,7.54,6.45,6.61,11.27,6.25c16.83-1.27,33.18,1.12,49.21,5.95 c29.78,8.97,55.52,24.1,73.1,50.53c1.09,1.63,2.14,3.28,3.16,4.95c7.11,11.69,12.33,24.32,13.99,38.24 c4.36,5.55,5.15,12.24,6.31,18.79c0.18,1.01,0.36,2.01,0.57,3.01c0.1,0.5,0.21,0.99,0.33,1.49c7.83,32.74,8.88,66.07,7.99,99.52 c-0.2,7.44,0.85,14.49,3.89,21.26c2.49-0.07,4.99-0.05,7.48-0.16c0.83-0.04,1.66-0.09,2.48-0.16c27.95-2.52,55.88-2.28,83.83,0.13 c13.92,1.2,26.48,6.2,38.34,13.23c2.56,1.51,5.75,2.91,6.68,5.79c1.98,6.09,6.88,9.68,10.95,13.96 c11.96,12.56,23.68,25.32,33.02,40c2.54,3.99,5.97,5.8,10.25,7.15c33.97,10.71,68.15,20.53,103.22,27.17 c49.72,9.42,99.4,18.73,149.84,23.88c55.94,5.72,109.81-1.44,161.23-23.74c73.64-31.94,122.14-85.93,140.79-165.1 c6.35-26.93,9.69-54.37,14.59-81.55c11.42-63.34,17.68-127.27,22.87-191.32c4.92-60.75,8.46-121.58,10.85-182.49 C2258.01,2121.39,2258.93,2009.22,2251.48,1897.06z M1019.35,673.49c-5.18,19.54-12.86,37.7-28.2,51.84 c-19.06,17.57-41.07,22-65.76,15.83c-8.38-2.09-13.89-7.42-17.67-14.94c-8.39-16.68-11.87-34.47-12.32-54.83 c-3.24-10.36,2.45-20.27,8.53-29.87c11.17-17.64,24.23-33.47,43.83-42.42c13.19-6.02,26.4-6.87,39.01,1.4 c6.7,4.4,12.47,10.01,17.05,16.66c6.26,9.09,11.03,18.97,14.86,29.29C1021.98,655.34,1021.73,664.49,1019.35,673.49z M1107.92,569.37c-8.24,29.01-37.54,36.53-59.01,15.38c-17.52-17.26-22.6-39.22-23.59-62.66c-0.54-11.3,1.78-21.77,7.02-31.82 c9.72-18.66,33.73-20.98,46.46-10.97c19.36,15.23,31.32,35.33,32.37,60.48C1111.57,549.66,1110.63,559.79,1107.92,569.37z M1277.57,616.54c-2.41-5.42-2.25-10.98-2.44-18.4c-1.14-12.57,5.7-24.07,14.18-34.42c11.13-13.58,24.69-23.98,42.4-28.06 c7.07-1.63,13.73-4.67,21.01-5.97c27.73-4.95,51.91,16.87,45.93,46.42c-6.38,31.54-33.27,61.82-70.47,67.66 C1306.63,647.16,1286.05,635.59,1277.57,616.54z M1517.82,746.84c-2.46,0.48-3.18,3.2-4.54,5.05c-6.5,8.85-13.11,17.62-19.6,26.48 c-16.09,21.98-38.25,33.5-64.76,37.28c-11.2,1.59-22.44,3.06-31.89,2.61c-23.07,0.39-43.79-1.77-63.52-10.06 c-10.86-4.56-20.61-10.75-29.05-19.01c-4.1-4.02-5.9-8.41-4.67-14.3c1.5-7.18,2.81-14.41,5.69-21.16 c13.44-31.49,33.5-57.61,63.95-74.2c32.99-17.97,65.63-17.02,96.91,4.81c21.31,14.87,37.82,34.42,53.34,54.92 C1522.17,742.52,1524.24,745.58,1517.82,746.84z" fill="inherit"/><path d="M1140.43,2472.57c-27.37-13.71-54.07-28.65-80.34-44.41c-35.08-21.04-69.66-42.98-107.11-59.83 c-26.23-11.8-53.18-20.95-81.88-24.4c-4.66-0.56-9.27-0.75-13.93-0.39c-2.77,0.21-5.71,0.06-6.15-3.46 c-0.51-4.08,2.52-4.98,5.73-5.2c3.31-0.22,6.65-0.46,9.95-0.29c8.66,0.45,17.16,1.98,25.66,3.66c2.13,0.42,4.24,0.89,6.34,1.39 c2.51,0.6,5.01,1.27,7.49,1.96c12.05,3.38,23.82,7.7,35.78,11.39c-3.23-12.55-6.94-24.92-11.6-37.05 c-5-13.01-12.31-24.18-22.38-33.8c-6.78-6.48-14.23-12-21.76-17.48c-28.59-20.8-57.86-40.25-92.23-50.66 c-16.84-5.1-33.65-10.51-49.18-19.13c-15.7-8.71-29.05-19.79-38.18-35.61c-11.91-20.65-17.34-43.29-18.54-66.63 c-1.19-23.2-1.04-46.47,1.1-69.78c2.83-30.77,6.7-61.33,12.6-91.63c9.46-48.62,24.78-95.15,49.8-138.19 c1.78-3.06,4.41-6,3.72-10.05c-3.37,0.59-6.12,2.54-8.99,4.19c-14.43,8.3-28.87,16.58-43.24,24.98 c-93.61,54.67-179.61,119.48-258.22,194.09c-58.37,55.4-105.4,119.13-139.79,191.91c-20.62,43.63-31.98,89.63-30.93,138.14 c0.75,34.53,8.2,68.1,18.4,100.89c12.14,39,31.8,74.63,52.52,109.63c0.63,1.06,1.14,2.49,3.26,2.36c0.78-0.02,1.17-0.99,1.6-1.84 c9.16-17.97,23.36-29.6,43.13-34.1c2.42-0.55,4.2-1.6,5.9-3.33c16.52-16.84,37.18-22.4,60.05-22c3.25,0.06,6.48,1.22,9.77-0.56 c7.76-4.21,16.21-5.99,25-5.83c4,0.07,5.83-1.19,6.5-5.45c1.28-8.21,2.96-16.39,5.07-24.42c9.65-36.73,21.41-72.78,35.94-107.89 c3.33-8.05,5.11-16.28,5.89-25.03c3.89-43.75,2.46-87.23-6.68-130.21c-10.7-50.34-25.84-99.19-52.23-143.9 c-1.52-2.57-2.88-5.27-3.95-8.05c-0.81-2.08,0.11-3.92,2.16-4.96c1.66-0.84,3.54-0.59,4.62,0.67c1.71,2,3.06,4.34,4.37,6.64 c19.7,34.61,34.3,71.2,44.69,109.71c12.14,44.99,19.45,90.41,17.79,137.1c-0.07,1.87-1.16,4.14,1.53,5.92 c1.48-4.51,3.01-8.86,4.33-13.26c5.44-18.17,10.77-36.37,16.27-54.52c1.01-3.33,1.62-8.3,6.66-6.85c5.02,1.44,2.98,5.87,1.99,9.29 c-9.93,34.19-19.42,68.55-31.98,101.89c-13.26,35.19-26.78,70.24-37.48,106.36c-10.32,34.84-14.84,70.22-13.92,106.47 c0.86,33.88,8.76,65.6,24.92,95.65c11.46,21.32,27.1,35.53,51.15,40.66c23.42,5,46.84,10.28,69.87,16.81 c77.16,21.87,153.99,44.82,230.1,70.16c51.68,17.21,101.11,39.19,148.36,66.22c10.95,6.27,22,12.37,33,18.55c0,0,0,0,0,0 c0,0,0,0,0,0c0,0,0,0,0,0c4.97-0.12,9.94-0.31,14.91-0.34c26.15-0.18,51.93-3.54,77.49-8.8c8.07-1.66,16.1-3.49,24.17-5.13 c2.09-0.42,3.78-1.11,4.55-3.25c-6.95-5.18-13.83-10.46-19.24-17.21c-1.25-1.56-2.42-3.19-3.49-4.92 c-2.73-4.4-5.06-3.85-8.55-0.78c-6.8,5.96-14.24,11.32-23.27,13.04c-20.96,3.99-41.72,4.86-60.87-7.11 c-1.43-0.9-2.84-1.57-4.53-1.86c-14.29-2.45-27.11-8.68-39.71-15.48c-15.63-8.44-25.24-21.47-28.84-38.71 c-8.16-39.03-2.71-76.27,16.89-110.91c28.57-50.49,71.99-82.88,126.74-100.45c20.56-6.6,41.58-11.79,62.28-17.98 c16.29-4.87,31.32-12.58,48.05-21.99c-9.34-2.39-16.61-4.41-23.95-6.11C1196.12,2494.3,1167.34,2486.05,1140.43,2472.57z" fill="inherit"/></g><g fill="#E7D6C2" id="change2_1"><path d="M449.78,2550.79c0.02,0.03,0.04,0.05,0.06,0.08c0.04,0,0.08,0,0.12-0.01 C449.96,2550.86,449.78,2550.79,449.78,2550.79z" fill="inherit"/><path d="M451.26,2552.8c-0.47-0.64-0.95-1.29-1.43-1.93c-2.31,0.22-4.51-0.08-6.6-1.21 c-7.48-4.07-15.58-4.49-23.94-4.95c-15.23-0.84-32.32,12.9-35.8,32.27c-1.75,9.72,1.41,18.95,0.15,28.38 c21.25,21.53,60.69,19.79,82.57,2.85c3.4-2.64,4.21-5.46,3.33-9.47C465.97,2582.41,460.3,2566.94,451.26,2552.8z" fill="inherit"/><path d="M495.58,2530.9c-11.37-0.68-22.4,0.05-31.89,7.44c-2.29,1.78-3.96,4.56-7.38,4.46 c3.41,6.45,6.95,12.83,10.22,19.36c5.69,11.37,9.49,23.38,11.92,35.87c0.67,3.44,0.98,7.32,5.4,8.8 c7.61,2.55,15.14,5.13,23.19,1.02c-1.19-4.38-2.35-8.54-3.44-12.72C498.1,2574.07,496.47,2552.53,495.58,2530.9z" fill="inherit"/><path d="M486.85,2491.92c3.62,1.98,6.67,3.66,10.26,4.29C497.57,2489.65,497.57,2489.65,486.85,2491.92z" fill="inherit"/><path d="M2144.73,2224.72c-3.3-26.12-13.71-49.89-28.87-71.29c-23.02-32.48-49.61-62.15-74.58-93.1 c-12.51-15.51-24.97-31.11-32.13-50.06c-0.67-1.77-1.68-2.76-3.44-3.11c-2.1,0.78-2.8,2.75-3.69,4.51 c-11.69,23.05-27.73,42.86-45.62,61.28c-16.22,16.71-34.01,31.63-52.03,46.35c-27.53,22.48-56.11,43.49-85.5,63.44 c-21.15,14.36-42.58,28.38-63.14,43.55c-27.89,20.59-57.59,38.19-88.06,54.39c-29.94,15.92-60.35,30.98-91.63,44.24 c-41.95,17.78-84.8,32.85-128.63,45.27c-22.4,6.34-45.19,11.05-68.25,12.39c-21.46,1.25-43.16,2.18-64.7-1.39 c-23.27-3.86-46.36-7.93-66.35-21.73c-1.86-1.28-4.29-1.74-6.44-2.59c-4.32-1.7-8.74-3.21-12.94-5.16 c-18.99-8.82-37.35-18.83-55.29-29.63c-30.46-18.34-60.2-37.75-88.89-58.78c-23.58-17.29-45.7-36.25-67.74-55.44 c-24.23-21.1-46.16-43.88-63.11-71.34c-16.06-26.02-34.12-50.72-53-74.68c-18.24-23.16-33.61-47.82-45.87-74.46 c-16.8-36.51-29.78-74.61-45.41-111.61c-1.58-3.75-2.35-10.55-6.89-9.56c-5.85,1.28-3.02,8.04-2.44,12.06 c1.13,7.83,4.1,15.39,5.46,23.21c5.06,29.27,14.64,57.16,25.66,84.55c16.12,40.04,34.92,78.97,50.42,119.28 c1.76,4.57,3.45,9.16,5.04,13.78c4.78,13.86,8.66,27.98,10.77,42.59c0,0,0,0,0,0c11.8,24.33,21.1,49.58,28.81,75.36 c2.57,8.59,4.96,17.25,7.21,25.94c7.57,29.29,13.94,58.89,20.52,88.43c1.35,6.06,3.96,9.58,9.88,12.2 c14.89,6.59,29.27,14.3,43.37,22.51c43.12,25.1,85.19,51.99,129.74,74.62c20.24,10.28,41.21,18.59,63.12,24.42 c18.31,4.87,36.81,9.04,55.06,14.12c3.93,1.09,6.66,1.06,10.06-0.95c14.31-8.47,28.77-16.69,42.66-25.88 c19.7-13.03,39.47-25.97,59.47-38.54c29.38-18.47,60.22-33.79,93.6-44c62.67-19.17,125.52-23.26,188.44-2.31 c34.39,11.45,69.04,21.98,103.77,32.29c4.59,1.36,7.89,0.94,11.94-1.75c20.25-13.42,40.85-26.29,61.15-39.63 c51.71-34,107.74-59.2,165.15-81.65c2.88-1.12,7.09-4.07,8.5-0.05c1.39,3.96-3.99,4.38-6.76,5.55 c-18.67,7.9-37.46,15.53-56.13,23.47c-0.71,0.3-1.48,0.55-2.25,0.8c-2.31,0.75-4.67,1.58-5.77,4.25 c4.76,0.91,9.21-0.38,13.65-1.88c16.09-5.43,32.77-7.96,49.58-9.72c3.94-0.41,8.02-0.33,11.96,0.14 c18.38,2.22,36.6,5.19,54.78,8.89c12.88,2.62,26.39,2.58,38.25-6.11c10.22-7.48,19.66-15.43,27.59-25.52 C2141.5,2275.29,2148.07,2251.18,2144.73,2224.72z" fill="inherit"/><path d="M907.13,1567.76c21.42,23.83,45.79,44.41,73.37,60.88c6.43,3.84,12.25,8.14,16.8,13.84 c8.96,11.24,19.28,20.97,30.28,30.14c14.06,11.72,28.76,22.5,44.87,31.21c23.44,12.67,47.63,23.45,73.61,30.12 c24.47,6.29,49.26,10.47,74.44,11.23c18.21,0.56,36.45,0.79,54.75-1.35c12.83-1.5,25.62-3.21,38.27-5.57 c23.82-4.45,47.08-11.02,69.77-19.71c28.1-10.76,54.07-25.29,78.65-42.53c14.99-10.51,28.73-22.57,42.11-34.88 c11.66-10.73,21.43-23.51,33.84-33.61c1.73-1.41,2.7-3.76,3.99-5.69c3.87-5.82,6.08-12.52,10.14-18.3 c13.05-18.56,23.54-38.56,31.95-59.61c4.56-11.42,8.31-23.09,7.52-35.76c-0.35-5.7-1.7-11.4-6.9-13.44 c-3.43-1.35-4.56-3.43-5.14-5.77c-0.35-1.41-0.51-2.91-0.84-4.41c-2.33,1.44-4.69,2.82-7,4.28c-0.77,0.49-1.54,0.98-2.29,1.49 c-28.17,18.96-56.63,37.46-87.28,52.24c-115.6,55.74-237.26,81.61-365.68,73.04c-45.43-3.03-89.84-11.66-131.46-30.65 c-44.35-20.24-85.65-45.73-123.6-76.48c-0.77-0.62-1.5-1.29-2.22-1.97c-2.18-2.03-4.32-4.13-7.24-5.17 c-0.93,4.35,1.53,7.72,3.39,11.19C869.75,1519.53,886.65,1544.98,907.13,1567.76z" fill="inherit"/><path d="M1445.3,2626.05c-0.12-0.49-0.23-0.99-0.33-1.49c-0.21-1-0.4-2-0.57-3.01 c-1.16-6.54-1.95-13.23-6.32-18.79c-15.82,7.83-30.04,18.16-44.65,27.93c-23.2,15.51-46.04,31.48-67.76,48.99 c-23.75,19.14-46.72,39.28-71.45,57.2c-20.52,14.87-42.37,24.81-68.73,17.93c-16.58-4.33-30.65-11.13-35.01-29.75 c-0.5-2.13-0.6-4.72-2.72-6.26c-2.38,28.64,3.4,55.52,17.57,80.53c4.99,8.8,11.4,16.57,20.14,21.76 c30.62,18.19,62.25,22.54,94.69,5.03c12.27-6.62,24.1-14.12,35.79-21.73c28.3-18.41,59.01-31.86,90.18-44.39 c2.05-0.83,4.12-1.59,6.21-2.31c2.44-0.84,4.89-1.61,7.36-2.33c2.47-0.72,4.95-1.38,7.45-2.01c1.6-0.4,3.21-0.79,4.82-1.17 c1.48-0.34,2.96-0.68,4.45-1c0.96-0.21,1.92-0.42,2.89-0.62c1.41-0.3,2.83-0.6,4.24-0.89c4.55-0.94,9.1-1.86,13.64-2.84 c-3.04-6.77-4.09-13.82-3.89-21.26C1454.19,2692.13,1453.13,2658.79,1445.3,2626.05z" fill="inherit"/><path d="M1494.75,2913.21c0.16-2.41,0.23-4.81,0.2-7.21c-0.09-7.2-1.03-14.35-2.86-21.4 c-1.74,0.33-3.33,1.19-3.86,2.82c-4.22,12.98-14.2,20.94-23.84,29.82c-20.08,18.5-53.63,17.5-72.78,2.27 c-16.35-13.01-33.25-25.46-47.44-41c-7.88-8.63-17.27-15.53-26.51-22.58c-1.87-1.42-3.62-2.66-6.06-3.16 c-12.44-2.52-22.99-9.68-34.55-14.38c-16.94,7.28-34.6,8.54-52.7,6.42c-1.8-0.21-3.58-0.48-5.35-0.8 c-1.76-0.32-3.51-0.69-5.24-1.11c-1.73-0.42-3.45-0.89-5.15-1.39c-8.51-2.54-16.68-6.09-24.75-9.95 c-0.77,2.14-2.46,2.82-4.55,3.25c-8.07,1.64-16.1,3.47-24.17,5.13c-25.56,5.26-51.35,8.62-77.49,8.8 c-4.97,0.03-9.94,0.23-14.91,0.34c0,0,0,0,0,0c0,0,0,0,0,0c0.76,0.62,1.49,1.31,2.27,1.9c0.26,0.2,0.53,0.38,0.81,0.55 c33.23,20.25,66.85,39.85,98.04,63.32c14.78,11.12,31.94,17.62,50.32,20.65c16.49,2.72,33.1,3.43,49.75,3.3 c18.24-0.15,34.84,4.18,49.02,16.32c6.91,5.91,15.18,9.33,23.91,11.93c27.27,8.13,54.92,10.21,82.92,5.31 c19.07-3.34,37.73-8.12,53.63-20.18C1486.37,2942.32,1493.66,2929.41,1494.75,2913.21z" fill="inherit"/><path d="M1614.19,2910.95c2.93-19.35,1.95-38.27-6.96-56.18c-3.06,2.64-2.14,6.29-1.65,9.31 c0.76,4.64,0.36,9.06-0.09,13.66c-1.49,15.26-12.64,28.67-27.32,32.93c-16.11,4.68-30.66,0.57-44.74-7.07 c-12.03-6.53-21.99-15.73-31.98-24.88c0.1,9.29,2,18.42,2.28,27.74c0.72,24.49-9.52,42.85-29.61,56.26 c-2.24,1.49-5.36,2.23-6.48,5.51c17.64,9.56,36.29,11.57,55.43,10.52c24.35-1.33,47.05-7.78,66.92-22.57 c10.83-8.06,17.82-18.59,20.98-31.69C1612.06,2919.98,1613.5,2915.52,1614.19,2910.95z" fill="inherit"/><path d="M1097.48,2814.68c4.97,0.28,9.97,0.07,14.96,0.16c14.07,0.25,25.78-5.27,36.16-14.39 c3.1-2.72,4.32-5.05,2.47-9.3c-1.39-3.19-2.66-6.39-3.82-9.62c-1.16-3.23-2.21-6.47-3.14-9.73c-5.62-19.57-7.28-39.8-5.7-60.52 c-4.26-1.04-6.91,2.17-9.69,4.18c-9.65,6.96-18.98,14.37-28.45,21.58c-3.54,2.7-7.48,4.12-12.04,3.81 c-16.86-1.14-28.24-12.89-28.74-29.77c-0.35-11.95,0.06-23.79,3.37-35.43c1.03-3.62,2.25-7.88-1.9-10.88 c-2.24,2.17-2.96,5.13-3.95,7.9c-10.06,28.12-12.2,57.01-8.06,86.44c1.49,10.6,4.7,20.72,9.6,30.26 C1066.66,2805.24,1079.69,2813.7,1097.48,2814.68z" fill="inherit"/><path d="M1643.26,2916.4c-3.84-6.87-7.29-13.95-10.3-21.28c-2.84-6.91-4.37-14.5-9.4-20.42 c-0.48,4.01,0.74,7.9,0.89,11.85c0.95,24.43-3.05,47.54-18.73,67.37c-0.79,1-1.83,1.98-0.87,3.93 c12.68-0.35,25.62-0.55,37.83-5.24c4.09-1.57,8-3.37,11.53-5.57c1.41-0.88,2.76-1.82,4.04-2.83s2.48-2.1,3.61-3.27 c0.07-0.07,0.13-0.16,0.21-0.23c0.77-0.82,1.49-1.69,2.17-2.6c0.52-0.69,1.02-1.41,1.48-2.15c0.24-0.38,0.48-0.75,0.7-1.14 c1.62-2.85,2.85-6.07,3.6-9.76c-1.29,0.14-2.64,0.08-3.87,0.44C1653.5,2929.18,1649.68,2927.89,1643.26,2916.4z" fill="inherit"/><path d="M1043.25,2774.69c-1.92-6.6-3.29-13.26-4.41-20c-2.49-0.14-4.1-1.75-5.86-3.28 c-12.8-11.1-21.17-24.89-25.24-41.28c-0.67-2.68-0.88-5.28-4.46-5.33c-3.43,11.64-2.38,23.55-1.85,35.37 c1.13,25.37,12.08,44.35,36.51,54.11c4.9,1.96,9.49,4.96,16.13,5.56c-4.42-7.37-7.59-14.8-9.97-22.32 C1043.81,2776.58,1043.52,2775.63,1043.25,2774.69z" fill="inherit"/><path d="M1923.07,2332.91c-0.49-0.04-0.96-0.04-1.41,0.01c-0.34,0.04-0.67,0.11-0.98,0.2 c-0.17,0.05-0.34,0.1-0.5,0.17c-0.81,0.33-1.53,0.88-2.14,1.72c1.95-0.06,3.97,0.08,5.07-2.03c2.3,0.04,4.83,0.68,5.91-2.36 C1926.5,2329.99,1924.55,2330.85,1923.07,2332.91z" fill="inherit"/><path d="M1004.85,2692.74c0.79-0.56,0.92-1.27,0.52-2.12c-0.1,0.07-0.19,0.14-0.28,0.21 c-0.08,0.06-0.15,0.13-0.21,0.19c-0.13,0.13-0.23,0.27-0.3,0.42C1004.42,2691.81,1004.47,2692.23,1004.85,2692.74L1004.85,2692.74 z" fill="inherit"/><path d="M1003.94,2698.81L1003.94,2698.81c-0.05,0.7-0.1,1.39-0.15,2.09c1.2-0.53,1.42-1.12,0.57-1.79 C1004.25,2699,1004.1,2698.91,1003.94,2698.81z" fill="inherit"/><path d="M1490.93,2876.71C1490.93,2876.71,1490.93,2876.71,1490.93,2876.71c-0.24,0.21-0.6,0.37-0.69,0.63 c-0.25,0.7,0.08,1.2,0.85,1.43C1491.04,2878.09,1490.99,2877.4,1490.93,2876.71z" fill="inherit"/></g><g fill="#341C22" id="change3_1"><path d="M1888.57,322.51c11.19,49.1,12.14,98.26,6.86,147.84c-2.62,24.59-10.45,48.04-17.74,71.57 c-0.92,2.98-5.03,7.85,0.01,9.39c4.44,1.35,4.4-4.72,5.47-7.82c14.16-41.24,23.09-83.37,21-127.33 c0.27-16.27,1.07-32.71-1.43-48.84c-9.01-58.2-23.77-114.67-52.87-166.51c-1.86-3.31-2.32-10.68-7.58-8.13 c-4.06,1.97,0.79,7.04,2.45,10.28C1864.26,241.02,1879.02,280.6,1888.57,322.51z" fill="inherit"/><path d="M1832.41,421.69c-0.78,25.99-4.31,51.65-15.3,75.73c-1.39,3.04-5.3,7.89-1.53,9.61 c5.26,2.4,5.36-4.3,6.76-7.42c13.98-31.07,16.5-64.05,15.86-97.5c-0.02-22.74-2.94-45.09-8.7-67.06c-0.86-3.3-0.4-9.5-4.56-8.54 c-5.42,1.26-1.68,6.9-0.84,10.12C1831.37,364.56,1833.28,393.06,1832.41,421.69z" fill="inherit"/><path d="M2279.27,1959.2c-0.44-11.98-0.71-23.96-1.34-35.93c-2.13-40.57-5.13-81.09-8.79-121.55 c-3.53-39.12-6.89-78.26-10.9-117.34c-4.69-45.7-9.77-91.36-15.09-136.99c-6.68-57.2-13.41-114.4-20.81-171.51 c-8.42-65.01-17.26-129.97-27.33-194.75c-9.15-58.85-18.92-117.58-33.29-175.45c-16.6-66.83-36.32-132.74-57.99-198.09 c-28.47-85.85-55.56-172.15-85.27-257.59c-1.13-3.26-1.62-6.43-1.26-9.77c1-9.27,1.76-18.57,3.13-27.78 c4.49-30.29,10.5-60.34,13.87-90.8c2.64-23.84,5.02-47.73,4.16-71.74c-1.7-47.85-10.47-94.51-25.05-140.06 c-9.66-30.18-21.49-59.49-39.54-85.79c-16.68-24.3-37.49-44.99-58.74-65.22c-11.82-11.25-23.95-22.19-37.11-31.89 c-7.09-5.23-14.75-6.99-23.44-4.7c-5.53,1.46-9.05,5.4-12.88,9.04c-23.98,22.79-43.94,49.12-65.31,74.2 c-37.78,44.34-73.78,90.23-116.81,129.88c-19.35,17.83-38.63,35.71-58.83,52.6c-8.34,6.97-17.44,9.31-27.83,7.87 c-8.23-1.14-16.46-2.25-24.49-4.59c-37.59-10.95-75.92-16.54-115.12-17.44c-26.64-0.61-53.28-1.56-79.92-2.02 c-6.63-0.12-13.12-2.03-19.89-0.8c-10.21,1.86-20.64,1.97-30.88,0.71c-25.53-3.15-47.9-12.37-64.95-32.96 c-26.14-31.55-51.52-63.68-76.28-96.3c-25.17-33.16-47.95-68-70.84-102.73c-8.32-12.61-18.05-23.85-29.04-34.09 c-5.73-5.34-13.03-7.53-17.09-3.74c-9.36,8.72-20.23,16.16-24.4,29.52c-18.79,60.14-34.69,120.9-39.74,183.96 c-2.82,35.19-5.04,70.4-3.43,105.77c1.03,22.69,3.91,45.08,8.3,67.3c1.14,5.78,0.46,9.9-4.41,13.89 c-9.51,7.81-18.45,16.33-27.65,24.53c-38.81,34.59-77.27,69.6-111.05,109.22c-66.41,77.89-114.81,166.07-148.08,262.7 c-20.15,58.51-33.1,118.57-37.5,180.28c-3.15,44.16-4.61,88.41-2.59,132.72c0.79,17.32,2.18,34.58,5.16,51.64 c15.23,87.11,50.43,165.61,102.36,236.89c13.35,18.33,27.86,35.7,43.09,52.47c3.08,3.39,3.84,6.5,2.95,10.77 c-2.46,11.72-4.76,23.48-6.87,35.26c-9.01,50.42-17.94,100.86-26.87,151.3c-5.86,33.09-11.76,66.17-17.4,99.29 c-0.7,4.09-2.44,6.27-5.99,8.17c-43.44,23.25-85.4,49.03-126.3,76.41c-86.67,58.02-166.37,124.48-236.98,201.33 c-51.05,55.57-92.42,117.67-119.53,188.57c-1.92,5.03-4.63,7.17-9.64,8.39c-19.39,4.72-38.69,10.04-56.7,18.75 c-49.54,23.95-94.88,54.04-132.41,94.7c-33.32,36.11-58.17,76.84-65.35,126.58c-0.27,1.85,0.58,5.08-3.27,4.67c0,1.33,0,2.67,0,4 c4.17,1.52,2.82,5.43,3.44,8.36c0.83,3.89,0.86,7.95,1.7,11.84c6.92,32.09,40.09,72.03,71.07,85.72c0.3,0.13,0.64,0.2,0.94,0.33 c28.58,12.84,59.14,16.11,89.77,15.81c41.62-0.41,80.72-12.2,116.92-32.79c11.5-6.54,22.16-14.58,33.98-22.44 c3.31,5.45,7.14,10.52,9.7,16.17c10.36,22.86,25.88,41.76,44.09,58.66c9.08,8.42,18.76,16.32,30.85,19.75 c23.2,6.57,45.57,4.68,65.7-9.64c5-3.56,8.91-4.45,14.34-1.33c4.62,2.65,10.09,3.34,15.45,3.39c3.04,0.02,4.84,1.07,6.15,3.9 c7.43,16.02,19.67,28.23,31.86,40.62c11.82,12.01,25.59,19.81,41.92,23.66c26.2,6.19,52.54,11.95,78.44,19.23 c63.98,17.98,127.64,37.09,190.88,57.51c44.27,14.3,88.46,29.02,129.98,50.39c61.26,31.53,120.85,65.9,176.82,106.25 c20.93,15.09,43.95,24.39,69.85,26.95c16.28,1.61,32.6,1.43,48.88,2.46c12.39,0.78,23.38,4.44,32.98,12.39 c5.4,4.46,11.29,8.28,17.82,10.91c22.23,8.96,45.54,12.63,69.3,12.31c20.01-0.27,39.74-3.59,58.69-10.48 c3.25-1.18,6.07-1.27,9.26,0.9c8.64,5.88,18.55,8.82,28.62,11.24c7.4,0.69,14.79,1.48,21.95,3.62c2.67,0,5.33,0,8,0 c7.23-1.66,14.5-3.09,21.94-3.5c16.54-2.91,32.24-8.1,46.34-17.42c3.5-2.31,7.16-3.09,11.28-3.13c9.98-0.1,19.95-0.41,29.9-1.63 c15.12-1.86,28.07-7.79,38.82-18.58c3.53-3.54,6.86-7.3,10.63-10.56c20.3-17.57,22.77-39.48,15.5-63.63 c-2.48-8.25-5.85-16.23-8.83-24.38c2.24-1.91,4.31-0.19,6.39,0.41c37.44,10.89,75.86,17.22,114.08,24.43 c30.09,5.68,60.43,9.68,90.84,13.36c71.35,8.63,138.51-3.98,201.35-38.75c28.01-15.49,50.77-37.54,72.31-60.84 c12.67-13.7,24.47-28.1,33.99-44.28c14.69-24.97,23.64-52.09,28.85-80.32c13.1-71.04,24.35-142.33,30.77-214.37 c6.71-75.32,11.58-150.74,15-226.26c0.6-13.3,0.54-26.64,0.78-39.96l0.85,0.03l0.84-0.13c0-10.66,0-21.32,0-31.98 c0-57.97,0-115.93,0-173.9c0-10.66,0-21.32,0-31.98C2280.42,1959.25,2279.85,1959.22,2279.27,1959.2z M1856.76,54.63 c0.56-7.08,3.38-6.86,8.35-6.37c4.57,0.45,7.86,3.43,11.26,6.06c50.19,38.81,87.95,86.38,107.62,147.74 c19.5,60.81,31.19,122.48,26.87,186.55c-2.19,32.57-7.43,64.76-12.8,96.93c-6.25,37.45-10.89,75.1-10.64,113.16 c0.11,16.66,2.47,33.18,3.91,49.76c0.19,2.19,1.23,4.51-0.39,6.87c-3.51-0.51-5.5-3.39-7.93-5.43 c-28.28-23.82-57.1-46.96-87.62-67.89c-31.73-21.76-66.48-37.84-101.35-53.64c-17.58-7.96-35.38-15.42-53.04-23.21 c-8.93-3.94-9.44-4.49-7.99-14.39c3.05-20.75,7.64-41.21,12.31-61.64c9.42-41.2,19.21-82.29,35.19-121.6 c12.04-29.62,26.18-58.28,39.8-87.17c17.1-36.28,26.15-74.59,30.89-114.13C1853.27,89.06,1855.4,71.87,1856.76,54.63z M1054.28,28.6c2.97,4.24,6.01,8.44,8.9,12.74c23.73,35.39,46.94,71.14,72.65,105.15c24.3,32.14,48.99,63.97,75.02,94.73 c6.02,7.11,12.26,14.05,18.45,21.02c6.22,7,13.55,12.74,21.04,17.88c-0.22,1.61-0.91,2.15-2.01,2.05 c-35.03-3.11-66.98,7.99-98.46,21.29c-16.55,7-32.51,15.19-47.87,24.48C1079.42,292.99,1048.11,104.19,1054.28,28.6z M1004.97,237.46c3.14-60.18,15.68-118.55,32.64-176.13c1.29-4.37,1.99-9,5.66-14.76c1.13,24.04,2.03,46.3,3.85,68.53 c1.93,23.57,5.47,46.9,9.45,70.17c1.22,7.13,1.09,13.53-1.88,20.32c-9.16,20.98-12.58,43.38-14.68,65.94 c-2.13,22.87-3.32,45.83-0.24,68.74c0.54,4.03-0.52,11.28,3.72,10.95c5.59-0.43,2.36-7.12,2-10.8 c-3.74-38.46-0.88-76.41,8.13-113.93c1.28-5.32,2.38-10.83,6.86-17c2.77,14.17,5.16,26.68,7.66,39.16 c5.25,26.14,13.2,51.51,21.79,76.7c2.87,8.41,2.83,8.38-4.42,13.53c-23.06,16.4-46.04,32.89-68.15,50.57 c-1.25,1-2.34,2.43-5.11,2.11c-3.3-13.12-4.96-26.83-6.68-40.49C1000.82,313.24,1003,275.37,1004.97,237.46z M311.96,2525.31 c-30.97,24.2-65.63,40.28-104.09,48.33c-39.01,8.17-77.48,5.3-115.46-5.77c-51.43-14.98-73.89-67.03-61.23-112.06 c13.8-49.12,40.02-90.39,79.96-122.57c27.34-22.03,57.02-40.45,88.45-55.94c23.35-11.51,48.49-17.81,75.28-24.14 c-2.45,14.56-5.54,27.14-7.27,39.97c-4.67,34.74-1.74,68.95,5.11,103.18c8.19,40.86,22.91,79.14,42.47,115.74 C319.41,2519.95,319.11,2519.73,311.96,2525.31z M466.21,2608.2c-21.88,16.94-61.32,18.68-82.57-2.85 c-13.33-9.67-20.82-23.78-28.65-37.63c-1.25-2.21-0.87-4.39-0.32-6.73c8.03-34.19,47.77-50.81,77.13-32.05 c8.29,5.3,13.62,13.35,18.16,21.91l-0.18-0.07c0.94,0.35,1.54,0.93,1.49,2.01c9.04,14.14,14.7,29.61,18.29,45.94 C470.43,2602.75,469.62,2605.57,466.21,2608.2z M483.85,2606.83c-4.42-1.48-4.73-5.36-5.4-8.8c-2.43-12.49-6.23-24.5-11.92-35.87 c-3.27-6.52-6.8-12.91-10.22-19.36c-2.42-3.18-4.72-6.45-7.27-9.51c-10.7-12.87-18.33-17.14-38.37-21.46 c2.89-3.76,6.8-5.54,10.6-7.37c20.96-10.03,42.54-9.69,64.22-3.14c10.7,3.23,11.05,4.49,10.63,15.63 c-0.17,4.65-0.37,9.3-0.55,13.95c0.89,21.63,2.52,43.17,8.01,64.23c1.09,4.18,2.26,8.34,3.44,12.72 C498.99,2611.96,491.46,2609.38,483.85,2606.83z M486.85,2491.92c10.72-2.26,10.72-2.26,10.26,4.29 C493.52,2495.57,490.46,2493.9,486.85,2491.92z M2253.61,2233.62c-2.39,60.91-5.92,121.75-10.85,182.49 c-5.19,64.05-11.45,127.98-22.87,191.32c-4.9,27.17-8.24,54.62-14.59,81.55c-18.66,79.17-67.15,133.16-140.79,165.1 c-51.42,22.3-105.3,29.46-161.23,23.74c-50.44-5.15-100.12-14.47-149.84-23.88c-35.07-6.64-69.25-16.46-103.22-27.17 c-4.28-1.35-7.72-3.17-10.25-7.15c-9.34-14.68-21.07-27.44-33.02-40c-4.07-4.27-8.97-7.86-10.95-13.96 c-0.94-2.88-4.13-4.27-6.68-5.79c-11.86-7.03-24.42-12.02-38.34-13.23c-27.94-2.41-55.88-2.66-83.83-0.13 c-0.83,0.07-1.65,0.13-2.48,0.16c-2.49,0.11-4.99,0.09-7.48,0.16c-4.54,0.97-9.09,1.89-13.64,2.83c-1.42,0.29-2.83,0.59-4.24,0.89 c-0.96,0.21-1.93,0.41-2.89,0.62c-1.48,0.33-2.97,0.66-4.45,1c-1.61,0.37-3.22,0.76-4.82,1.17c-4.99,1.25-9.93,2.66-14.81,4.34 c-2.08,0.72-4.15,1.49-6.21,2.31c-31.17,12.53-61.88,25.98-90.18,44.39c-11.7,7.61-23.52,15.11-35.79,21.73 c-32.44,17.51-64.08,13.16-94.69-5.03c-8.74-5.19-15.15-12.96-20.14-21.76c-14.17-25.01-19.95-51.89-17.57-80.53 c-0.95-9.21,2.19-17.73,4.82-26.24c6.87-22.24,16.24-43.49,26.23-64.47c1.14-2.39,2.25-4.81,3.19-7.29 c0.92-2.45,0.46-4.71-2.16-5.78c-2.05-0.84-3.96-0.09-5.2,1.76c-0.92,1.37-1.71,2.84-2.41,4.34c-3.44,7.28-6.84,14.57-10.12,21.91 c-2.12,4.74-4.17,9.5-6.16,14.29c-0.63,1.52-1.25,3.04-1.86,4.56c-6.45,16-11.98,32.35-15.68,49.38 c-1.57,20.72,0.08,40.95,5.7,60.52c0.94,3.26,1.98,6.51,3.14,9.73c1.16,3.23,2.43,6.43,3.82,9.62c1.86,4.25,0.64,6.58-2.47,9.3 c-10.38,9.11-22.09,14.64-36.16,14.39c-4.99-0.09-9.99,0.12-14.96-0.16c-17.78-0.98-30.81-9.44-38.94-25.3 c-4.89-9.54-8.11-19.66-9.6-30.26c-4.14-29.44-2-58.32,8.06-86.44c0.99-2.77,1.71-5.73,3.95-7.9 c5.89-14.97,15.58-27.64,24.63-40.71c1.51-2.18,3.2-4.24,4.71-6.42c1.65-2.39,2.4-4.95-0.45-6.93c-2.86-1.98-4.94-0.14-6.8,1.94 c-0.22,0.25-0.44,0.5-0.64,0.77c-16.18,21.94-32.04,44.11-38.6,71.2c-2.09,8.64-3.71,17.32-4.76,26.05 c-0.35,2.91-0.64,5.82-0.86,8.74c-0.33,4.38-0.52,8.77-0.55,13.17c-0.05,7.34,0.34,14.7,1.22,22.1 c1.28,7.71,2.88,15.31,5.26,22.83c2.39,7.52,5.56,14.95,9.97,22.32c-6.64-0.59-11.23-3.6-16.13-5.56 c-24.43-9.76-35.38-28.74-36.51-54.11c-0.53-11.82-1.58-23.73,1.85-35.37c0.17-1.3,0.34-2.6,0.51-3.9c0.05-0.7,0.1-1.39,0.15-2.09 l0,0c-0.05-0.53-0.09-1.05-0.09-1.57c-0.01-1.3,0.16-2.56,0.66-3.78c0.03-0.08,0.08-0.16,0.12-0.25c0.07-0.16,0.14-0.32,0.23-0.48 c-0.62-0.81-0.35-1.4,0.25-1.91c0.09-0.07,0.18-0.14,0.28-0.21c2.19-14.71,8.31-27.93,15.71-40.59 c27.84-47.59,69.33-77.86,121.2-94.68c11.98-3.89,24.16-7.28,36.41-10.22c29-6.97,55.92-18.71,81.59-33.71 c8.83-5.16,17.19-11.31,27.07-14.55c43.05-28.3,84.69-59.06,131.52-81.03c52.08-24.44,107.09-36.08,164.84-32.45 c25.76,1.62,50.55,8.17,74.83,16.64c37.4,13.05,75.34,24.3,113.8,33.79c17.2,4.24,34.87,5.41,52.46,6.58 c25.92,1.73,51.88,2.75,77.83,4.05c2.33,0.12,4.67,0.16,6.99,0.01c2.88-0.18,5.44-1.24,5.4-4.59c-0.03-2.76-2.26-3.94-4.7-4.32 c-1.96-0.31-3.98-0.3-5.98-0.37c-34.63-1.07-69.23-2.66-103.72-6.06c-10.14-1-20.27-2.19-29.95-5.33c0.19-3.53,2.7-4.24,4.52-5.42 c43.56-28.29,86.72-57.23,133.7-79.79c0.6-0.29,1.19-0.62,1.78-0.95c0.33-0.19,0.67-0.38,1-0.56c0.48-0.27,0.95-0.53,1.44-0.78 c0.04-0.02,0.08-0.04,0.12-0.06c0.1-0.05,0.2-0.09,0.31-0.14c0.27-0.13,0.54-0.26,0.81-0.37c1.14-0.46,2.34-0.75,3.68-0.71 c0.6-0.84,1.33-1.39,2.14-1.72c0.16-0.07,0.33-0.12,0.5-0.17c0.32-0.09,0.64-0.16,0.98-0.2c0.45-0.05,0.92-0.04,1.41-0.01 c1.48-2.06,3.43-2.92,5.95-2.3c0,0-0.07,0.18-0.08,0.22c1.1-2.66,3.46-3.48,5.77-4.24c0.77-0.25,1.54-0.5,2.25-0.8 c18.66-7.94,37.45-15.56,56.13-23.47c2.77-1.17,8.15-1.59,6.76-5.55c-1.41-4.02-5.62-1.07-8.5,0.05 c-57.41,22.44-113.44,47.65-165.15,81.65c-20.29,13.34-40.9,26.21-61.15,39.63c-4.05,2.68-7.35,3.11-11.94,1.75 c-34.73-10.31-69.38-20.84-103.77-32.29c-62.92-20.95-125.77-16.86-188.44,2.31c-33.37,10.21-64.22,25.53-93.6,44 c-20,12.57-39.77,25.51-59.47,38.54c-13.89,9.19-28.34,17.4-42.66,25.88c-3.4,2.01-6.13,2.04-10.06,0.95 c-18.25-5.08-36.75-9.25-55.06-14.12c-21.91-5.83-42.88-14.13-63.12-24.42c-44.54-22.63-86.62-49.53-129.74-74.62 c-14.1-8.21-28.48-15.92-43.37-22.51c-5.92-2.62-8.53-6.14-9.88-12.2c-6.58-29.54-12.95-59.14-20.52-88.43 c-2.25-8.7-4.64-17.35-7.21-25.94c-7.7-25.78-17.01-51.03-28.81-75.36c-1.66,0.07-3.2,0.48-3.7,1.77 c-0.17,0.43-0.22,0.96-0.12,1.61c0.34,2.24,1.29,4.43,2.23,6.54c20.44,45.99,33.54,94.21,43.82,143.31 c2.77,13.23,6.05,26.36,9.05,39.35c-0.61,0.35-1.16,0.57-1.67,0.7c-1.02,0.25-1.87,0.11-2.63-0.24c-0.89-0.4-1.65-1.07-2.43-1.7 c-11.96-3.69-23.72-8.01-35.78-11.39c-2.48-0.7-4.98-1.36-7.49-1.96c-2.1-0.5-4.21-0.97-6.34-1.39 c-8.5-1.68-17.01-3.22-25.66-3.66c-3.3-0.17-6.64,0.07-9.95,0.29c-3.21,0.22-6.24,1.12-5.73,5.2c0.44,3.53,3.38,3.68,6.15,3.46 c4.67-0.36,9.27-0.17,13.93,0.39c28.7,3.45,55.65,12.6,81.88,24.4c37.45,16.85,72.03,38.78,107.11,59.83 c26.26,15.76,52.97,30.7,80.34,44.41c26.91,13.48,55.69,21.73,84.92,28.5c7.34,1.7,14.61,3.71,23.95,6.11 c-16.73,9.41-31.76,17.12-48.05,21.99c-20.7,6.19-41.72,11.38-62.28,17.98c-54.75,17.57-98.17,49.95-126.74,100.45 c-19.6,34.64-25.05,71.89-16.89,110.91c3.61,17.24,13.22,30.27,28.84,38.71c12.6,6.8,25.43,13.03,39.71,15.48 c1.69,0.29,3.1,0.96,4.53,1.86c19.15,11.97,39.91,11.1,60.87,7.11c9.03-1.72,16.48-7.08,23.27-13.04 c3.49-3.06,5.82-3.61,8.55,0.78c1.07,1.73,2.24,3.36,3.49,4.92c5.41,6.75,12.29,12.03,19.24,17.21 c8.08,3.85,16.24,7.41,24.75,9.95c1.7,0.51,3.42,0.97,5.15,1.39c1.73,0.42,3.48,0.79,5.24,1.11c1.76,0.32,3.55,0.59,5.35,0.8 c18.1,2.12,35.76,0.86,52.7-6.42c18.36-10.1,35.63-22.02,53.75-32.49c33.77-19.5,68.65-36.64,106.88-45.82 c25.5-6.12,51.48-6.33,77.47-6.17c9.66,0.06,19.32,0.49,28.96,1.04c21.45,1.22,39.68,9.14,55.02,24.68 c29.17,29.54,52.32,62.9,67.25,101.72c1.36,3.53,2.6,7.09,3.63,10.67c0.77,2.68,1.4,5.38,1.87,8.1 c1.39,8.15,1.21,16.44-1.84,24.95c-0.75,3.69-1.98,6.92-3.6,9.76c-0.22,0.39-0.46,0.76-0.7,1.14c-0.47,0.74-0.96,1.46-1.48,2.15 c-0.68,0.91-1.4,1.78-2.17,2.6c-0.07,0.08-0.13,0.16-0.21,0.23c-2.24,2.35-4.83,4.35-7.65,6.11c-3.53,2.19-7.43,3.99-11.53,5.57 c-12.21,4.69-25.15,4.89-37.83,5.24c-0.97-1.95,0.07-2.93,0.87-3.93c15.68-19.83,19.68-42.94,18.73-67.37 c-0.15-3.95-1.37-7.84-0.89-11.85c-3.77-15.23-9.44-29.72-16.32-43.83c-10.55-21.63-26.04-39.28-43.46-55.47 c-1.2-1.12-2.56-2.14-4.01-2.89c-2.04-1.05-3.91-0.38-5.27,1.38c-1.16,1.5-1.03,3.23,0.15,4.59c1.96,2.25,4.03,4.43,6.23,6.45 c20.21,18.52,35.7,40.27,45.37,66.02c0.46,1.23,0.66,2.55,0.98,3.83c8.91,17.91,9.9,36.83,6.96,56.18 c-0.69,4.57-2.13,9.03-3.22,13.55c-3.16,13.1-10.15,23.63-20.98,31.69c-19.87,14.79-42.57,21.24-66.92,22.57 c-19.14,1.04-37.78-0.97-55.43-10.52c1.12-3.28,4.24-4.02,6.48-5.51c20.09-13.41,30.33-31.77,29.61-56.26 c-0.28-9.32-2.17-18.44-2.28-27.74c-3.04-15.8-9.79-30.2-16.32-44.76c-10.38-23.14-29.3-37.25-50.24-49.5 c-2.5-1.46-5.13-2.34-6.98,0.57c-2.16,3.4,0.19,5.55,2.83,7.3c5.26,3.48,10.55,6.93,15.85,10.35 c14.12,9.08,24.35,21.41,31.06,36.77c2.32,5.3,4.97,10.48,7.3,15.77c1,2.27,1.94,4.56,2.77,6.89c1.66,4.66,2.86,9.48,3.21,14.61 c0.05,0.69,0.11,1.38,0.16,2.07c0.33,1.94,0.66,3.88,0.99,5.82c1.83,7.04,2.78,14.2,2.86,21.4c0.03,2.4-0.04,4.81-0.2,7.21 c-1.09,16.2-8.38,29.11-21.35,38.95c-15.9,12.06-34.56,16.85-53.63,20.18c-28,4.9-55.66,2.82-82.92-5.31 c-8.73-2.6-17-6.02-23.91-11.93c-14.18-12.14-30.78-16.46-49.02-16.32c-16.66,0.13-33.27-0.58-49.75-3.3 c-18.38-3.03-35.54-9.53-50.32-20.65c-31.19-23.47-64.81-43.06-98.04-63.32c-0.28-0.17-0.55-0.36-0.81-0.55 c-0.78-0.59-1.5-1.28-2.27-1.9c0,0,0,0,0,0c-11-6.18-22.05-12.28-33-18.55c-47.24-27.03-96.68-49.01-148.36-66.22 c-76.11-25.34-152.94-48.29-230.1-70.16c-23.03-6.53-46.45-11.81-69.87-16.81c-24.05-5.13-39.69-19.33-51.15-40.66 c-16.16-30.05-24.06-61.77-24.92-95.65c-0.92-36.25,3.6-71.63,13.92-106.47c10.69-36.12,24.22-71.17,37.48-106.36 c12.56-33.34,22.05-67.7,31.98-101.89c0.99-3.42,3.03-7.85-1.99-9.29c-5.04-1.45-5.65,3.53-6.66,6.85 c-5.5,18.15-10.83,36.35-16.27,54.52c-1.32,4.41-2.85,8.76-4.33,13.26c-2.69-1.78-1.59-4.05-1.53-5.92 c1.66-46.69-5.65-92.11-17.79-137.1c-10.39-38.51-24.99-75.1-44.69-109.71c-1.31-2.3-2.66-4.64-4.37-6.64 c-1.08-1.26-2.96-1.51-4.62-0.67c-2.05,1.03-2.97,2.87-2.16,4.96c1.07,2.78,2.43,5.48,3.95,8.05 c26.39,44.71,41.53,93.56,52.23,143.9c9.14,42.98,10.57,86.46,6.68,130.21c-0.78,8.75-2.55,16.98-5.89,25.03 c-14.53,35.11-26.29,71.16-35.94,107.89c-2.11,8.04-3.79,16.22-5.07,24.42c-0.66,4.25-2.5,5.52-6.5,5.45 c-8.79-0.16-17.24,1.62-25,5.83c-3.3,1.79-6.53,0.62-9.77,0.56c-22.87-0.4-43.53,5.17-60.05,22c-1.7,1.73-3.48,2.78-5.9,3.33 c-19.77,4.5-33.97,16.13-43.13,34.1c-0.43,0.85-0.82,1.82-1.6,1.84c-2.12,0.13-2.63-1.3-3.26-2.36 c-20.72-35.01-40.38-70.63-52.52-109.63c-10.2-32.79-17.65-66.36-18.4-100.89c-1.05-48.5,10.31-94.51,30.93-138.14 c34.39-72.79,81.42-136.52,139.79-191.91c78.61-74.61,164.61-139.42,258.22-194.09c14.37-8.39,28.81-16.68,43.24-24.98 c2.87-1.65,5.62-3.59,8.99-4.19c4.18-3.29,8.91-5.48,14.23-7.48c1.2,6.91-1.68,12.86-2.08,19.06c-0.15,2.3-0.6,4.6-0.55,6.9 c0.01,0.68,1.18,1.75,1.96,1.88c0.76,0.13,2.21-0.48,2.46-1.12c0.86-2.14,1.5-4.41,1.9-6.68c6.2-35.73,12.25-71.48,18.53-107.19 c13.13-74.7,25.58-149.53,40.33-224.45c5.26,0.74,7.31,5.46,10.67,8.26c0.41,0.34,0.81,0.7,1.21,1.06 c0.79,0.72,1.56,1.48,2.31,2.25c1.87,1.93,3.65,3.98,5.52,5.91c2.92,1.04,5.06,3.14,7.24,5.17c0.73,0.68,1.46,1.35,2.22,1.97 c37.95,30.75,79.25,56.24,123.6,76.48c41.62,18.99,86.03,27.62,131.46,30.65c128.42,8.56,250.08-17.3,365.68-73.04 c30.64-14.78,59.11-33.28,87.28-52.24c0.76-0.51,1.52-1,2.29-1.49c2.31-1.46,4.68-2.84,7-4.28c4.47-3.45,8.96-6.88,13.4-10.37 c1.16-0.91,1.53-2.38,0.79-3.54c-0.73-1.15-2.26-1.59-3.54-0.88c-2.03,1.12-3.93,2.47-5.85,3.77 c-10.74,7.29-21.42,14.67-32.21,21.89c-77.95,52.17-163.61,85.56-255.37,103.36c-53.11,10.3-106.91,14.94-161.02,12.24 c-51.79-2.59-102.55-10.84-150.33-32.5c-113.18-51.32-195.12-134.59-250.49-244.95c-24.76-49.36-42.44-101.12-51.12-155.81 c-2.56-16.15-3.93-32.42-4.45-48.71c-1.51-47.97-0.59-95.93,3.94-143.73c7.37-77.83,28.07-152.23,58.87-223.95 c15.12-35.22,32.76-69.13,52.59-101.91c1.71-2.82,3.73-5.46,5.6-8.18c11.77-19.83,24.38-39.06,38.11-57.41 c0.11-0.15,0.23-0.3,0.34-0.45c2.89-3.86,5.85-7.68,8.84-11.46c1.41-1.78,2.83-3.54,4.26-5.3c4.45-5.47,9-10.85,13.69-16.13 c5.72-6.44,11.62-12.73,17.71-18.87c63.92-64.34,130.55-125.65,205.49-177.25c38.24-26.33,79.53-46.1,125.34-54.8 c21.38-4.06,43.16-3.34,64.2,3.45c12.51,4.04,25.17,5.89,38.32,5.51c47.65-1.36,95.23,1.09,142.82,3.11 c29.54,1.25,57.94,8.08,86.31,15.43c10.99,2.85,22.03,5.02,33.43,5.44c9.44,0.35,17.63-2.26,25.03-8.11 c13.87-10.95,26.91-22.84,40.12-34.56c54.26-48.11,102.25-102.08,148.16-158.02c15-18.28,30.33-36.29,45.58-54.36 c2.69-3.19,5.11-6.75,10.25-9.94c-0.92,10-1.52,18.48-2.51,26.91c-2.57,21.82-5.63,43.57-9.99,65.12 c-5.38,26.63-15.63,51.52-27.01,76.01c-12.35,26.56-25.47,52.77-36.37,79.98c-16.4,40.93-26.54,83.68-36.11,126.56 c-4.06,18.18-7.46,36.51-11.1,54.78c-0.52,2.6-0.8,5.26-0.98,7.91c-0.57,8.26,2.78,13.87,10.66,17.21 c18.39,7.78,36.66,15.83,54.89,23.97c37.72,16.84,75.02,34.45,108.87,58.54c32.87,23.4,64.13,48.8,94.49,75.34 c1,0.87,1.88,1.89,2.84,2.81c1.6,1.53,3.5,1.98,5.47,1.02c2.05-1,2.61-3,2.38-5.08c-0.91-8.27-1.91-16.53-2.9-24.79 c-3-25.17-4.51-50.4-2.7-76.63c3.87,2.93,4.1,7.04,5.29,10.42c20.91,59.67,39.49,120.11,59.47,180.08 c23.67,71.04,46.75,142.25,66.06,214.64c16.66,62.46,29.01,125.78,38.9,189.63c9.88,63.82,19.1,127.73,27.42,191.76 c8.02,61.73,15.6,123.53,22.77,185.36c6.83,58.86,13.32,117.77,19.18,176.74c5.99,60.3,11.02,120.7,15.05,181.18 C2258.93,2009.22,2258.01,2121.39,2253.61,2233.62z" fill="inherit"/><path d="M1341.51,1133.07c-2.03,1.1-4.01,2.45-5.65,4.06c-8.46,8.31-18.81,13.54-29.37,18.54 c-28.63,13.56-58.51,23.62-88.95,32.15c-24.32,6.82-48.49,14.39-73.75,17c-18.94,1.96-37.87,2.38-56.22-4.21 c-1.04,0.53-1.66,0.2-1.9-0.92c0,0-0.15-0.05-0.15-0.05c-4.21,0.61-7.74-1.61-11.4-2.97c-47.01-17.42-93.16-36.94-139.12-56.91 c-2.43-1.06-4.74-2.4-7.15-3.49c-3.09-1.4-4.29-3.76-4.45-7.09c-0.65-13.93-1.69-27.84-1.53-41.8c0.04-3.46,0.7-5.46,4.54-6.15 c7.69-1.37,14.11-5.68,20.5-9.86c18.36-12.02,35.78-25.32,52.96-38.95c2.32-1.84,4.8-3.49,7.2-5.23c0,0,0,0,0,0 c2.93-2.72,5.91-5.38,8.91-8.02c3.48-3.06,6.98-6.09,10.47-9.14c6.5-5.68,12.94-11.43,19.01-17.6 c9.79-9.96,14.72-21.97,16.25-35.51c0.16-1.4,0.26-2.8,0.32-4.2c0.19-4.22,0.06-8.47,0.17-12.7 c-3.28-18.82-13.17-33.09-29.56-42.88c-14.06-8.4-28.89-15.18-44.82-18.99c-24.13-5.77-48.75-6.16-73.4-5.19 c-4.96,0.19-9.87,1.45-14.88,0.61c-6.59,0.87-13.17,1.8-19.77,2.59c-19.98,2.38-37.58,11-54.06,21.73 c-16.42,10.69-21.24,28.18-24.03,46.28c-1.2,7.78,0.36,15.25,4.27,22.11c4.28,7.5,8.46,15.08,13.14,22.33 c8.81,13.68,17.93,27.15,26.93,40.7c8.66,10.88,17.3,21.78,25.99,32.63c4.82,6.02,10.31,11.34,17.54,14.35 c3.9,1.63,5.4,4.14,5.44,8.36c0.12,14.6,1.12,29.17,2.44,43.71c0.77,8.5-2.97,14.51-10.36,18.75 c-14.52,8.32-15.18,8.38-28.03-1.79c-6.48-5.13-12.97-10.26-19.45-15.39c-1.19-0.36-2.38-0.68-3.55-0.92 c-5.09-1.05-9.94-0.64-13.8,4.14c-4.53,5.62-3.19,11.78-1.14,17.99c1.82,5.49,5.12,10,8.69,14.39 c10.69,7.96,23.05,11.73,35.95,13.74c10.77,1.68,21.32,0.54,30.84-5.31c4.19-2.58,8.51-3.43,13.32-3.01 c5.3,0.46,10.63,0.57,15.95,0.86c8.69,0.48,17.02,2.18,25.15,5.57c41.44,17.27,83.2,33.61,125.95,47.49 c35.01,11.37,69.95,11.99,105.15,2.27c29.48-8.14,59.27-15.14,88.41-24.49c2.21-0.71,4.39-1.61,6.79-1.03c0,0,0,0,0,0 c0,0,0.06-0.02,0.06-0.02c0.19-1.4,1.05-1.49,2.16-1.1c4.35-1.64,8.68-3.33,13.04-4.92c14.98-5.45,30.03-10.75,44.95-16.35 c11.28-4.23,19.88-12,26.57-21.83c4.84-7.12,4.33-14.28-0.85-20.2C1357.69,1130.9,1348.83,1129.13,1341.51,1133.07z M909.83,923.77c-15.1-0.16-29.82-2.72-43.96-8.12c-10.08-3.85-19.02-9.36-25.88-18.51c9.37-6.91,19.53-10.77,30.3-12.97 c10.71-2.19,21.75-2.49,32.45-3.91c13-1.73,25.82-1.89,38.7-1.68c15.29,0.25,30.59,1.39,45.53,5.29 c13.28,3.47,25.79,8.81,37.79,15.38c1.93,1.06,4.26,1.79,5.17,4.43c-3.59,3.3-8.32,3.98-12.69,5.25 C982.17,919.12,946.36,924.17,909.83,923.77z" fill="inherit"/><path d="M1219.27,1074.96c5.16,0.09,9.82-4.07,10.11-9.02c0.29-4.97-3.91-9.56-9.11-9.94 c-5.4-0.4-10.61,4.27-10.64,9.53C1209.6,1070.5,1214.06,1074.87,1219.27,1074.96z" fill="inherit"/><path d="M1136.66,1043.46c5,0.29,9.61-4.18,9.6-9.33c0-4.96-3.72-8.85-8.68-9.1c-5.18-0.26-9.75,4.05-9.71,9.16 C1127.9,1038.76,1132.1,1043.19,1136.66,1043.46z" fill="inherit"/><path d="M1128.82,1145.8c-0.17,3.85,2.67,7.21,6.39,7.55c3.82,0.35,7.89-3.44,7.84-7.29 c-0.06-3.62-3.34-6.84-7.08-6.93C1131.97,1139.04,1128.99,1141.82,1128.82,1145.8z" fill="inherit"/><path d="M812.64,1032.51c0.02-3.28-3.12-6.4-6.31-6.28c-3.23,0.11-6.37,3.42-5.97,6.61 c0.42,3.28,2.29,5.4,5.81,5.61C809.73,1038.66,812.62,1035.98,812.64,1032.51z" fill="inherit"/><path d="M1072.88,1071.79c3.3-0.15,6.18-3.37,5.92-6.62c-0.28-3.48-3.32-5.9-6.9-5.51c-3.58,0.39-5.16,2.73-5.34,6 C1066.36,1069.04,1069.53,1071.94,1072.88,1071.79z" fill="inherit"/><path d="M1122.34,1098.49c3.39,0.29,6.59-2.54,6.69-5.79c0.1-3.04-3.2-6.44-6.25-6.45 c-3.19-0.01-6.24,3.18-6.02,6.49C1116.98,1096.16,1118.87,1098.19,1122.34,1098.49z" fill="inherit"/><path d="M1186.67,1147.92c3.31,0.07,6.43-2.95,6.41-6.19c-0.02-3.24-3.18-6.22-6.52-6 c-3.48,0.23-5.38,2.24-5.7,5.64C1180.52,1144.95,1183.16,1147.84,1186.67,1147.92z" fill="inherit"/><path d="M786.55,1097.04c-2.25,0.37-3.32,1.94-3.2,4.21c0.14,2.38,1.84,3.71,3.85,3.71 c2.51,0.01,4.24-1.53,4.24-4.49C790.86,1097.96,789.26,1096.59,786.55,1097.04z" fill="inherit"/><path d="M1084.57,1110.85c2.53-0.1,4.38-1.48,4.49-4.05c0.09-2.1-1.51-3.68-3.66-3.94 c-2.76-0.34-4.36,1.33-4.47,3.94C1080.85,1108.98,1082.24,1110.39,1084.57,1110.85z" fill="inherit"/><path d="M812.7,1081.04c-2.26,0.35-3.34,1.92-3.23,4.18c0.11,2.37,1.77,3.68,3.81,3.73 c2.59,0.07,4.19-1.51,4.25-4.39C817,1081.98,815.4,1080.62,812.7,1081.04z" fill="inherit"/><path d="M1076.97,1144.94c0.22,2.47,1.92,3.27,4.08,3.22c2.28-0.06,3.78-1.48,3.85-3.62 c0.09-2.63-1.66-4.05-4.21-4.44C1078.03,1140.65,1076.73,1142.23,1076.97,1144.94z" fill="inherit"/><path d="M785.58,1012.42c0.31-2.17-0.74-3.81-3-4.17c-2.4-0.38-3.42,1.22-3.97,3.31c0.2,2.16,1.35,3.71,3.57,3.73 C783.86,1015.31,785.33,1014.18,785.58,1012.42z" fill="inherit"/><path d="M789.1,1052.35c-2.03,0.41-3.49,2.01-2.92,4.26c0.4,1.6,1.72,2.9,3.55,2.74c2.19-0.19,3.44-1.57,3.56-3.77 C792.64,1053.43,791.33,1051.9,789.1,1052.35z" fill="inherit"/><path d="M1466.35,684.33c-31.28-21.83-63.93-22.78-96.91-4.81c-30.45,16.59-50.5,42.72-63.95,74.2 c-2.88,6.74-4.19,13.98-5.69,21.16c-1.23,5.89,0.56,10.28,4.67,14.3c8.44,8.26,18.19,14.45,29.05,19.01 c19.73,8.29,40.45,10.45,63.52,10.06c9.44,0.45,20.69-1.01,31.89-2.61c26.51-3.77,48.66-15.29,64.76-37.28 c6.49-8.86,13.1-17.63,19.6-26.48c1.36-1.85,2.08-4.57,4.54-5.05c6.43-1.26,4.35-4.32,1.88-7.59 C1504.17,718.75,1487.66,699.2,1466.35,684.33z M1333.79,765.34c-1.16-9.41-0.16-18.38,3.03-27.45 c7.6-21.58,19.32-40.21,37.62-54.11c8.63-6.56,19.1-8.88,31.82-10.05c-9.66,12.63-15.64,25.48-20.21,38.9 c-7.84,23.04-11.14,46.47-5.15,70.65c2.45,9.9,7.71,18.23,13.71,27.44C1363.36,815.98,1337.6,796.25,1333.79,765.34z M1426.23,718.58c-5.53,2.28-11.43,3.34-17.69,3.38c-5.07-0.37-10.78-0.18-13.25-6.22c-1.72-4.19,2.88-12.88,7.89-16.12 c1.48-0.96,3-1.47,4.68-1.23c8.09,1.16,15.45,4.07,21,10.23C1432.69,712.9,1431.78,716.29,1426.23,718.58z" fill="inherit"/><path d="M907.72,726.22c3.78,7.51,9.29,12.84,17.67,14.94c24.69,6.17,46.7,1.73,65.76-15.83 c15.34-14.14,23.02-32.3,28.2-51.84c2.38-9,2.63-18.14-0.66-27.04c-3.83-10.32-8.6-20.2-14.86-29.29 c-4.58-6.65-10.35-12.26-17.05-16.66c-12.61-8.27-25.82-7.42-39.01-1.4c-19.6,8.94-32.66,24.78-43.83,42.42 c-6.08,9.6-11.77,19.51-8.53,29.87C895.86,691.75,899.33,709.54,907.72,726.22z M994.19,640.92c3.26-1.23,6.31-0.72,7.83,2.22 c2.43,4.68,4.52,9.67,3.27,15.21c-1.18,5.24-5.09,8.71-9.53,8.6c-4.59-0.11-7.86-3.57-8.68-9.23c-0.19-1.31-0.22-2.64-0.27-3.27 C987.05,646.45,989.23,642.79,994.19,640.92z M902.52,661.36c10.23-11.31,19.75-23.38,34.67-31.53 c-13.59,38.38-15.47,74.06,11.54,106.42c-14.58,4.92-30.42-1.27-36.92-14.96c-8.32-17.5-10.78-36.19-10.63-55.36 C901.19,664.27,901.26,662.75,902.52,661.36z" fill="inherit"/></g><g fill="#CAC3BC" id="change4_1"><path d="M1277.32,1201.67c-2.4-0.58-4.58,0.32-6.79,1.03c-29.14,9.35-58.94,16.34-88.41,24.49 c-35.19,9.72-70.13,9.1-105.15-2.27c-42.75-13.88-84.51-30.22-125.95-47.49c-8.13-3.39-16.46-5.1-25.15-5.57 c-5.32-0.29-10.65-0.4-15.95-0.86c-4.82-0.42-9.13,0.44-13.32,3.01c-9.52,5.85-20.07,7-30.84,5.31 c-12.9-2.02-25.26-5.78-35.95-13.74c-0.08,4.66-0.13,9.32-0.23,13.98c-0.24,10.39,3.23,19.64,9.22,27.87 c4.09,5.63,8.51,11.04,13.44,16.04c10.28,10.41,20,21.38,28.16,33.54c11.57,17.26,24.2,33.2,43,43.38 c16.36,8.86,33.03,15.9,52.15,13.12c11.14-1.62,22.24-3.54,33.27-5.79c39.13-7.98,77.15-19.67,114.58-33.56 c29.26-10.86,58.65-21.42,88.74-29.86c8.63-2.42,17.54-4.37,25.61-8.08c14.99-6.9,27.07-17.95,38.23-29.97 c0.45-0.49,0.81-1,1.05-1.55C1277.45,1203.77,1277.56,1202.77,1277.32,1201.67C1277.32,1201.67,1277.32,1201.67,1277.32,1201.67z" fill="inherit"/><path d="M1008.8,1061.56c-0.36-1.73-0.71-3.47-1.04-5.21s-0.62-3.48-0.88-5.23c-1.16-7.87-1.52-15.82,0.19-23.91 c0,0,0,0,0,0c-2.41,1.74-4.88,3.39-7.2,5.23c-17.18,13.63-34.6,26.93-52.96,38.95c-6.39,4.18-12.81,8.49-20.5,9.86 c-3.84,0.68-4.5,2.69-4.54,6.15c-0.15,13.97,0.88,27.87,1.53,41.8c0.16,3.33,1.36,5.69,4.45,7.09c2.42,1.09,4.72,2.43,7.15,3.49 c45.97,19.96,92.11,39.49,139.12,56.91c3.66,1.36,7.19,3.58,11.4,2.97c0.02-2.33-1.72-3.3-3.25-4.62 c-15.99-13.73-29.79-29.44-40.69-47.45c-14.71-24.3-25.17-50.49-31.11-78.25C1009.92,1066.75,1009.34,1064.16,1008.8,1061.56z" fill="inherit"/><path d="M887.08,1147.14c7.39-4.23,11.13-10.25,10.36-18.75c-1.32-14.55-2.31-29.11-2.44-43.71 c-0.04-4.22-1.53-6.73-5.44-8.36c-7.23-3.02-12.72-8.33-17.54-14.35c-8.69-10.85-17.33-21.75-25.99-32.63 c-1.29,8.04,1.11,15.88,2.24,23.61c2.17,14.94,2.09,29.55-0.05,43.91c-0.48,3.19-1.05,6.37-1.73,9.54 c-1.01,4.75-2.25,9.48-3.7,14.18c-0.97,3.14-2.03,6.26-3.19,9.38c6.48,5.13,12.97,10.26,19.45,15.39 C871.9,1155.53,872.56,1155.46,887.08,1147.14z" fill="inherit"/><path d="M1277.38,1201.64c0.44,0.19,0.8,0.24,1.11,0.17c0.14-0.03,0.26-0.09,0.37-0.17 c0.31-0.21,0.53-0.58,0.68-1.1C1278.43,1200.15,1277.57,1200.24,1277.38,1201.64z" fill="inherit"/><path d="M1087.58,1200.63c-0.07-0.26-0.16-0.48-0.27-0.65c-0.18-0.26-0.41-0.41-0.7-0.45 c-0.26-0.04-0.57,0.02-0.93,0.18c0,0,0,0,0,0C1085.91,1200.84,1086.54,1201.16,1087.58,1200.63z" fill="inherit"/><path d="M865.87,915.65c14.14,5.4,28.86,7.96,43.96,8.12c36.53,0.4,72.34-4.65,107.41-14.85 c4.37-1.27,9.1-1.95,12.69-5.25c-0.91-2.64-3.24-3.37-5.17-4.43c-12.01-6.56-24.51-11.9-37.79-15.38 c-14.93-3.9-30.23-5.04-45.53-5.29c-12.88-0.21-25.7-0.05-38.7,1.68c-10.7,1.42-21.74,1.73-32.45,3.91 c-10.77,2.2-20.93,6.05-30.3,12.97C846.85,906.29,855.79,911.81,865.87,915.65z" fill="inherit"/></g><g fill="#FFFCF1" id="change5_1"><path d="M485.51,2501.32c-21.68-6.55-43.27-6.9-64.22,3.14c-3.81,1.82-7.71,3.6-10.6,7.37 c20.04,4.32,27.67,8.59,38.37,21.46c2.55,3.07,4.85,6.34,7.27,9.51c3.42,0.09,5.09-2.68,7.38-4.46 c9.48-7.38,20.52-8.12,31.89-7.44c0.19-4.65,0.38-9.3,0.55-13.95C496.56,2505.81,496.2,2504.56,485.51,2501.32z" fill="inherit"/><path d="M449.95,2550.86C449.95,2550.86,449.95,2550.86,449.95,2550.86c-4.53-8.57-9.86-16.62-18.15-21.91 c-29.36-18.76-69.1-2.14-77.13,32.05c-0.55,2.34-0.93,4.52,0.32,6.73c7.83,13.85,15.32,27.97,28.66,37.63 c1.26-9.44-1.9-18.66-0.15-28.38c3.49-19.37,20.57-33.1,35.8-32.27c8.36,0.46,16.46,0.88,23.94,4.95c2.09,1.14,4.29,1.43,6.6,1.21 c0.48,0.64,0.95,1.29,1.43,1.93C451.32,2551.79,450.78,2551.21,449.95,2550.86z" fill="inherit"/><path d="M1277.57,616.54c8.48,19.05,29.06,30.62,50.63,27.23c37.19-5.84,64.08-36.12,70.47-67.66 c5.98-29.55-18.21-51.37-45.93-46.42c-7.29,1.3-13.94,4.34-21.01,5.97c-17.72,4.08-31.27,14.48-42.4,28.06 c-8.48,10.35-15.32,21.85-14.18,34.42C1275.32,605.56,1275.15,611.12,1277.57,616.54z" fill="inherit"/><path d="M1048.91,584.75c21.47,21.15,50.77,13.63,59.01-15.38c2.72-9.57,3.65-19.71,3.24-29.57 c-1.05-25.15-13.01-45.25-32.37-60.48c-12.73-10.01-36.74-7.7-46.46,10.97c-5.23,10.05-7.55,20.52-7.02,31.82 C1026.3,545.53,1031.38,567.48,1048.91,584.75z" fill="inherit"/><path d="M1395.28,715.74c2.47,6.04,8.18,5.85,13.25,6.22c6.26-0.04,12.16-1.1,17.69-3.38 c5.55-2.29,6.46-5.69,2.62-9.96c-5.54-6.16-12.91-9.08-21-10.23c-1.67-0.24-3.2,0.27-4.68,1.23 C1398.17,702.86,1393.57,711.55,1395.28,715.74z" fill="inherit"/><path d="M2180.49,1669.59c-2.23-41.7-6.89-83.26-14.94-124.38c-4.71-24.07-8.22-48.38-12.16-72.6 c-0.48-2.94-0.27-5.98-0.46-8.97c-0.77-12.12-3.76-15.27-15.61-15.96c-11.01-0.64-21.87,0.3-32.63,2.99 c-11.04,2.76-21.43,7.1-31.68,11.91c-24.98,11.72-49.41,24.56-74.75,35.53c-18.87,8.16-38.7,12.74-58.97,12.98 c-33.32,0.39-63.28-10.38-89.32-31.57c-9.09-7.4-17.47-15.43-24.08-25.09c-8.32-12.16-11.55-26.16-12.25-40.54 c-0.53-10.9-0.9-21.89,0.94-32.86c1.04-6.17,0.45-12.62,0.54-18.94c0.62-46,10.07-90.18,26.27-133.18 c14.69-38.99,32.47-76.51,50.95-113.78c13.59-27.41,26.11-55.33,35.56-84.52c8.26-25.51,13.12-51.53,11.15-78.44 c-1.39-19.07-6.84-37.21-14.24-54.73c-5.95-14.1-12.82-27.83-21.38-40.53c-9.24-13.71-18.31-27.57-28.98-40.25 c-2.98-3.54-6.04-7.05-10.26-9.38c-1.98-1.1-4.09-2.71-5.13-4.63c-4.45-8.18-12.12-12.03-19.94-15.87 c-12.54-6.15-25.09-12.22-38.22-17.14c-23.74-8.88-48.14-8.14-72.77-6.37c-14.59,1.05-29.07,2.68-43.45,5.33 c-21.1,3.9-40.61,12.37-60.1,20.89c-7.01,3.06-13.87,6.46-20.87,9.54c-5.37,2.37-9.29,6.14-12.57,10.98 c-10.68,15.71-22.69,30.28-36.17,43.77c-37.47,37.5-82.38,61.35-133.48,74.14c-28.1,7.03-56.69,10.29-85.56,12.52 c-21.64,1.67-43.21,1.48-64.81,1.46c-29.3-0.02-58.26-3.83-87.07-8.84c-3.98-0.69-7.91-1.05-11.89-1.05 c-19.65-0.03-39.31-0.24-58.95,0.15c-4.33,0.08-8.63,0.34-12.92,0.74c-2.14,0.2-4.28,0.44-6.42,0.72 c-10.67,1.37-21.22,3.63-31.66,6.46c-0.1,4.23,0.03,8.48-0.17,12.7c-0.06,1.41-0.17,2.81-0.32,4.2 c-1.53,13.54-6.46,25.55-16.25,35.51c-6.07,6.17-12.5,11.92-19.01,17.6c-3.49,3.05-7,6.08-10.47,9.14c-3,2.64-5.98,5.3-8.91,8.02 c-1.71,8.08-1.36,16.04-0.19,23.91c0.26,1.75,0.56,3.49,0.88,5.23s0.68,3.48,1.04,5.21c0.54,2.6,1.12,5.19,1.67,7.78 c5.95,27.77,16.4,53.95,31.11,78.25c10.9,18.01,24.7,33.72,40.69,47.45c1.54,1.32,3.27,2.3,3.25,4.62l0.15,0.05 c0.36-0.16,0.67-0.21,0.93-0.18c0.29,0.04,0.52,0.19,0.7,0.45c0.11,0.17,0.2,0.38,0.27,0.65c18.35,6.58,37.28,6.17,56.22,4.21 c25.26-2.62,49.43-10.18,73.75-17c30.43-8.54,60.32-18.6,88.95-32.15c10.56-5,20.9-10.23,29.37-18.54 c1.64-1.61,3.62-2.97,5.65-4.06c7.31-3.95,16.18-2.18,21.74,4.17c5.18,5.92,5.7,13.08,0.85,20.2c-6.69,9.83-15.3,17.6-26.57,21.83 c-14.93,5.6-29.97,10.9-44.95,16.35c-4.37,1.59-8.7,3.28-13.04,4.92c-0.15,0.52-0.37,0.89-0.68,1.1 c-0.11,0.08-0.23,0.14-0.37,0.17c-0.31,0.07-0.67,0.01-1.11-0.17c0,0-0.06,0.02-0.06,0.02c0.24,1.1,0.13,2.11-0.28,3.02 c-0.25,0.55-0.6,1.06-1.05,1.55c-11.16,12.02-23.24,23.07-38.23,29.97c-8.07,3.71-16.98,5.66-25.61,8.08 c-30.09,8.43-59.48,19-88.74,29.86c-37.43,13.89-75.46,25.58-114.58,33.56c-11.03,2.25-22.13,4.17-33.27,5.79 c-19.12,2.78-35.79-4.26-52.15-13.12c-18.81-10.18-31.43-26.12-43-43.38c-8.16-12.16-17.88-23.13-28.16-33.54 c-4.94-5-9.35-10.41-13.44-16.04c-5.99-8.24-9.46-17.48-9.22-27.87c0.11-4.66,0.16-9.32,0.23-13.98 c-3.58-4.39-6.88-8.9-8.69-14.39c-2.05-6.21-3.4-12.38,1.14-17.99c3.86-4.79,8.71-5.19,13.8-4.14c1.17,0.24,2.36,0.56,3.55,0.92 c1.16-3.12,2.22-6.25,3.19-9.38c1.45-4.71,2.69-9.43,3.7-14.18c0.68-3.17,1.25-6.35,1.73-9.54c2.14-14.36,2.22-28.96,0.05-43.91 c-1.12-7.73-3.53-15.57-2.24-23.61c-8.99-13.56-18.12-27.02-26.93-40.7c-4.67-7.26-8.86-14.83-13.14-22.33 c-3.91-6.86-5.47-14.33-4.27-22.11c2.79-18.1,7.61-35.59,24.03-46.28c16.48-10.73,34.08-19.35,54.06-21.73 c6.6-0.79,13.18-1.72,19.77-2.59c2.34-2.4,5.78-1,9.7-2.79c-12.84-6.05-23.78-13.43-35.05-20.21c-14.27-8.58-22-20.9-25.43-36.45 c-2.07-9.38-4.61-18.71-5.1-28.39c-0.78-15.23,2.58-29.71,8.02-43.8c6.75-17.51,9-36.01,11.7-54.38 c1.08-7.32-1.28-14.48-2.81-21.62c-1.28-5.98-5.23-10.05-10.03-13.17c-15.73-10.23-32.43-18.28-51.14-21.49c0,0,0,0,0,0 c-1.4,2.04-2.89,4.03-4.27,6.09c-0.46,0.69-0.91,1.38-1.33,2.09c-19.83,32.78-37.47,66.69-52.59,101.91 c-30.8,71.73-51.5,146.13-58.87,223.95c-4.53,47.79-5.45,95.75-3.94,143.73c0.51,16.29,1.88,32.56,4.45,48.71 c8.67,54.69,26.35,106.44,51.12,155.81c55.36,110.35,137.31,193.62,250.49,244.95c47.78,21.67,98.54,29.92,150.33,32.5 c54.11,2.7,107.92-1.94,161.02-12.24c91.76-17.8,177.43-51.18,255.37-103.36c10.79-7.22,21.47-14.6,32.21-21.89 c1.92-1.3,3.82-2.65,5.85-3.77c1.28-0.71,2.81-0.27,3.54,0.88c0.74,1.16,0.37,2.63-0.79,3.54c-4.44,3.49-8.93,6.92-13.4,10.37 c0.34,1.5,0.49,3,0.84,4.41c0.58,2.35,1.71,4.42,5.14,5.77c5.19,2.04,6.54,7.73,6.9,13.44c0.79,12.67-2.95,24.34-7.52,35.76 c-8.41,21.04-18.9,41.04-31.95,59.61c-4.06,5.78-6.26,12.48-10.14,18.3c-1.29,1.93-2.26,4.28-3.99,5.69 c-12.41,10.1-22.18,22.87-33.84,33.61c-13.38,12.31-27.12,24.37-42.11,34.88c-24.59,17.24-50.55,31.76-78.65,42.53 c-22.68,8.69-45.94,15.26-69.77,19.71c-12.65,2.36-25.43,4.07-38.27,5.57c-18.3,2.14-36.54,1.9-54.75,1.35 c-25.18-0.77-49.97-4.94-74.44-11.23c-25.97-6.68-50.16-17.45-73.61-30.12c-16.11-8.71-30.81-19.49-44.87-31.21 c-11-9.17-21.32-18.9-30.28-30.14c-4.54-5.7-10.36-10-16.8-13.84c-27.57-16.46-51.95-37.05-73.37-60.88 c-20.49-22.79-37.38-48.24-51.93-75.2c-1.87-3.46-4.32-6.84-3.39-11.19c-1.87-1.94-3.65-3.98-5.52-5.91 c-0.75-0.77-1.51-1.53-2.31-2.25c-0.4-0.36-0.8-0.71-1.21-1.06c-3.36-2.8-5.41-7.52-10.67-8.26 c-14.75,74.92-27.2,149.75-40.33,224.45c-6.28,35.71-12.33,71.46-18.53,107.19c-0.39,2.28-1.04,4.54-1.9,6.68 c-0.26,0.64-1.7,1.26-2.46,1.12c-0.77-0.14-1.94-1.2-1.96-1.88c-0.05-2.29,0.4-4.59,0.55-6.9c0.4-6.2,3.28-12.15,2.08-19.06 c-5.32,2-10.05,4.18-14.23,7.48c0.69,4.05-1.94,6.99-3.72,10.05c-25.02,43.04-40.34,89.57-49.8,138.19 c-5.9,30.3-9.77,60.86-12.6,91.63c-2.14,23.31-2.29,46.58-1.1,69.78c1.2,23.33,6.62,45.97,18.54,66.63 c9.13,15.82,22.47,26.91,38.18,35.61c15.53,8.61,32.34,14.03,49.18,19.13c34.37,10.41,63.64,29.86,92.23,50.66 c7.53,5.48,14.99,11,21.76,17.48c10.07,9.62,17.38,20.79,22.38,33.8c4.66,12.13,8.37,24.5,11.6,37.05c0,0,0,0,0,0 c0.78,0.63,1.54,1.3,2.43,1.7c0.76,0.34,1.61,0.49,2.63,0.24c0.51-0.13,1.06-0.35,1.67-0.7c-3-12.99-6.28-26.12-9.05-39.35 c-10.29-49.1-23.38-97.32-43.82-143.31c-0.93-2.1-1.89-4.29-2.23-6.54c-0.1-0.65-0.05-1.18,0.12-1.61c0.5-1.29,2.04-1.7,3.7-1.77 c-2.1-14.61-5.99-28.73-10.77-42.59c-1.59-4.62-3.28-9.21-5.04-13.78c-15.5-40.31-34.3-79.23-50.42-119.28 c-11.03-27.39-20.61-55.29-25.66-84.55c-1.35-7.82-4.32-15.37-5.46-23.21c-0.58-4.02-3.42-10.78,2.44-12.06 c4.55-0.99,5.31,5.81,6.89,9.56c15.63,37,28.6,75.1,45.41,111.61c12.26,26.64,27.64,51.3,45.87,74.46 c18.88,23.97,36.94,48.67,53,74.68c16.95,27.46,38.87,50.24,63.11,71.34c22.04,19.19,44.16,38.16,67.74,55.44 c28.69,21.03,58.43,40.44,88.89,58.78c17.94,10.8,36.3,20.81,55.29,29.63c4.21,1.95,8.62,3.46,12.94,5.16 c2.16,0.85,4.59,1.31,6.44,2.59c19.99,13.81,43.07,17.88,66.35,21.73c21.54,3.57,43.23,2.64,64.7,1.39 c23.07-1.34,45.86-6.05,68.25-12.39c43.83-12.41,86.68-27.49,128.63-45.27c31.28-13.26,61.69-28.32,91.63-44.24 c30.48-16.2,60.18-33.8,88.06-54.39c20.56-15.18,41.98-29.19,63.14-43.55c29.39-19.96,57.97-40.97,85.5-63.44 c18.02-14.71,35.81-29.64,52.03-46.35c17.89-18.43,33.94-38.23,45.62-61.28c0.89-1.75,1.58-3.72,3.69-4.51 c-0.51-6.29-0.7-12.57-1.68-18.86c-1.19-7.66,1.16-15.22,3.97-22.28c4.32-10.87,10.35-20.72,18.44-29.42 c18.54-19.93,39.78-36.42,63.52-49.48c26.84-14.77,48.02-35.5,65.79-59.98c13.38-18.43,20.42-39.4,23.34-61.86 C2183.22,1733.44,2182.19,1701.4,2180.49,1669.59z M1072.88,1071.79c-3.35,0.15-6.52-2.75-6.33-6.13c0.19-3.27,1.76-5.61,5.34-6 c3.59-0.39,6.62,2.03,6.9,5.51C1079.06,1068.42,1076.18,1071.64,1072.88,1071.79z M1081.05,1148.15 c-2.15,0.05-3.86-0.74-4.08-3.22c-0.24-2.71,1.06-4.29,3.73-4.84c2.55,0.38,4.3,1.81,4.21,4.44 C1084.83,1146.67,1083.32,1148.1,1081.05,1148.15z M1084.57,1110.85c-2.33-0.45-3.72-1.86-3.63-4.05 c0.11-2.62,1.71-4.28,4.47-3.94c2.14,0.26,3.75,1.84,3.66,3.94C1088.95,1109.37,1087.1,1110.74,1084.57,1110.85z M1122.34,1098.49 c-3.47-0.3-5.36-2.33-5.58-5.75c-0.21-3.32,2.84-6.51,6.02-6.49c3.05,0.01,6.34,3.41,6.25,6.45 C1128.93,1095.95,1125.73,1098.78,1122.34,1098.49z M1135.2,1153.35c-3.72-0.34-6.56-3.7-6.39-7.55c0.18-3.98,3.16-6.76,7.14-6.67 c3.74,0.09,7.03,3.3,7.08,6.93C1143.1,1149.91,1139.02,1153.69,1135.2,1153.35z M1136.66,1043.46c-4.56-0.27-8.76-4.7-8.79-9.27 c-0.03-5.11,4.53-9.42,9.71-9.16c4.97,0.25,8.68,4.14,8.68,9.1C1146.27,1039.28,1141.66,1043.75,1136.66,1043.46z M1186.67,1147.92c-3.51-0.07-6.16-2.96-5.82-6.55c0.32-3.4,2.22-5.42,5.7-5.64c3.34-0.22,6.51,2.76,6.52,6 C1193.1,1144.97,1189.98,1147.98,1186.67,1147.92z M1229.38,1065.94c-0.29,4.95-4.95,9.11-10.11,9.02 c-5.2-0.09-9.67-4.46-9.64-9.43c0.03-5.26,5.24-9.93,10.64-9.53C1225.47,1056.38,1229.67,1060.97,1229.38,1065.94z M778.62,1011.56c0.55-2.09,1.57-3.7,3.97-3.31c2.26,0.36,3.31,2,3,4.17c-0.25,1.76-1.72,2.89-3.4,2.87 C779.96,1015.27,778.82,1013.72,778.62,1011.56z M787.2,1104.96c-2.01-0.01-3.71-1.33-3.85-3.71c-0.13-2.27,0.94-3.84,3.2-4.21 c2.71-0.44,4.31,0.92,4.89,3.44C791.44,1103.43,789.71,1104.97,787.2,1104.96z M789.72,1059.36c-1.83,0.16-3.15-1.14-3.55-2.74 c-0.57-2.26,0.89-3.85,2.92-4.26c2.23-0.46,3.54,1.08,4.19,3.23C793.16,1057.79,791.91,1059.17,789.72,1059.36z M806.17,1038.45 c-3.52-0.21-5.39-2.33-5.81-5.61c-0.41-3.19,2.74-6.5,5.97-6.61c3.2-0.11,6.33,3.01,6.31,6.28 C812.62,1035.98,809.73,1038.66,806.17,1038.45z M813.27,1088.95c-2.04-0.05-3.7-1.36-3.81-3.73c-0.11-2.26,0.97-3.83,3.23-4.18 c2.71-0.42,4.31,0.94,4.83,3.52C817.47,1087.44,815.86,1089.02,813.27,1088.95z" fill="inherit"/><path d="M1393.43,2630.7c14.61-9.77,28.83-20.09,44.65-27.93c-1.66-13.92-6.88-26.54-13.98-38.23 c-1.02-1.67-2.07-3.32-3.16-4.95c-17.59-26.42-43.33-41.55-73.1-50.53c-16.03-4.83-32.39-7.22-49.21-5.95 c-4.82,0.36-10.56,1.29-11.27-6.25c-9.88,3.24-18.24,9.39-27.07,14.55c-25.67,15-52.59,26.75-81.59,33.71 c-12.25,2.94-24.43,6.34-36.41,10.22c-51.86,16.82-93.35,47.09-121.2,94.68c-7.41,12.66-13.53,25.88-15.71,40.59 c0.4,0.85,0.26,1.57-0.52,2.12h0c-0.08,0.16-0.15,0.32-0.23,0.48c-0.04,0.08-0.08,0.16-0.12,0.25c-0.5,1.22-0.67,2.49-0.66,3.78 c0,0.52,0.04,1.04,0.09,1.57c0.16,0.1,0.31,0.2,0.43,0.29c0.84,0.67,0.62,1.27-0.57,1.79c-0.17,1.3-0.34,2.6-0.51,3.9 c3.58,0.05,3.79,2.65,4.46,5.33c4.06,16.39,12.44,30.19,25.24,41.28c1.76,1.53,3.37,3.14,5.86,3.28c-0.22-1.85-0.41-3.7-0.57-5.54 c-0.32-3.69-0.52-7.37-0.6-11.05c-0.04-1.84-0.06-3.67-0.05-5.51c0.03-4.4,0.22-8.79,0.55-13.17c0.22-2.92,0.51-5.83,0.86-8.74 c1.05-8.73,2.67-17.41,4.76-26.05c6.56-27.09,22.42-49.26,38.6-71.2c0.2-0.27,0.41-0.52,0.64-0.77c1.86-2.08,3.94-3.92,6.8-1.94 c2.85,1.98,2.1,4.54,0.45,6.93c-1.51,2.18-3.2,4.24-4.71,6.42c-9.05,13.06-18.74,25.73-24.63,40.71c4.15,3,2.92,7.25,1.9,10.88 c-3.3,11.64-3.72,23.48-3.37,35.43c0.5,16.88,11.87,28.63,28.74,29.77c4.56,0.31,8.5-1.12,12.04-3.81 c9.47-7.21,18.8-14.62,28.45-21.58c2.78-2,5.44-5.22,9.69-4.18c3.7-17.03,9.23-33.38,15.68-49.38c0.61-1.52,1.23-3.04,1.86-4.56 c1.99-4.79,4.05-9.55,6.16-14.29c3.28-7.34,6.68-14.63,10.12-21.91c0.71-1.49,1.49-2.97,2.41-4.34c1.25-1.85,3.15-2.59,5.2-1.76 c2.62,1.07,3.08,3.32,2.16,5.78c-0.93,2.48-2.05,4.89-3.19,7.29c-9.99,20.98-19.36,42.24-26.23,64.47 c-2.63,8.51-5.77,17.03-4.82,26.24c2.13,1.54,2.23,4.13,2.72,6.26c4.35,18.62,18.43,25.43,35.01,29.75 c26.36,6.88,48.2-3.06,68.73-17.93c24.73-17.92,47.7-38.05,71.45-57.2C1347.39,2662.18,1370.23,2646.22,1393.43,2630.7z" fill="inherit"/><path d="M1670,2892.02c-1.02-3.58-2.27-7.13-3.63-10.67c-14.93-38.83-38.08-72.19-67.25-101.72 c-15.35-15.54-33.57-23.46-55.02-24.68c-9.64-0.55-19.31-0.98-28.96-1.04c-25.99-0.16-51.97,0.05-77.47,6.17 c-38.24,9.18-73.11,26.32-106.88,45.82c-18.12,10.46-35.39,22.39-53.75,32.49c11.56,4.71,22.11,11.86,34.55,14.38 c2.44,0.5,4.2,1.74,6.06,3.16c9.25,7.05,18.63,13.95,26.51,22.58c14.2,15.55,31.09,27.99,47.44,41 c19.14,15.23,52.69,16.24,72.78-2.27c9.64-8.88,19.62-16.85,23.84-29.82c0.53-1.63,2.13-2.49,3.86-2.82 c-0.33-1.94-0.66-3.88-0.99-5.82c-0.77-0.23-1.1-0.73-0.85-1.43c0.09-0.26,0.45-0.43,0.69-0.63c0,0,0,0,0,0 c-0.34-5.13-1.55-9.95-3.21-14.61c-0.83-2.33-1.77-4.62-2.77-6.89c-2.33-5.29-4.99-10.47-7.3-15.77 c-6.71-15.36-16.94-27.68-31.06-36.77c-5.31-3.41-10.59-6.87-15.85-10.35c-2.65-1.75-4.99-3.91-2.83-7.3 c1.85-2.91,4.48-2.03,6.98-0.57c20.94,12.24,39.86,26.36,50.24,49.5c6.53,14.56,13.29,28.96,16.32,44.76 c9.99,9.15,19.94,18.35,31.98,24.88c14.08,7.64,28.63,11.75,44.74,7.07c14.67-4.26,25.82-17.67,27.32-32.93 c0.45-4.6,0.85-9.01,0.09-13.66c-0.49-3.02-1.42-6.68,1.65-9.31c-0.32-1.28-0.52-2.6-0.98-3.83 c-9.67-25.75-25.16-47.5-45.37-66.02c-2.2-2.02-4.27-4.19-6.23-6.45c-1.18-1.36-1.31-3.09-0.15-4.59 c1.36-1.76,3.23-2.43,5.27-1.38c1.45,0.75,2.81,1.77,4.01,2.89c17.41,16.19,32.91,33.84,43.46,55.47 c6.88,14.11,12.55,28.6,16.32,43.83c5.03,5.92,6.56,13.5,9.4,20.42c3.01,7.33,6.46,14.42,10.3,21.28 c6.42,11.48,10.24,12.77,22.9,9.11c1.23-0.36,2.58-0.3,3.87-0.44c3.05-8.51,3.23-16.8,1.84-24.95 C1671.4,2897.4,1670.76,2894.7,1670,2892.02z" fill="inherit"/><path d="M1336.82,737.89c-3.19,9.07-4.19,18.04-3.03,27.45c3.82,30.91,29.57,50.64,60.83,45.37 c-6.01-9.2-11.26-17.54-13.71-27.44c-5.99-24.18-2.69-47.61,5.15-70.65c4.56-13.42,10.55-26.27,20.21-38.9 c-12.73,1.17-23.19,3.5-31.82,10.05C1356.13,697.68,1344.41,716.31,1336.82,737.89z" fill="inherit"/><path d="M948.73,736.25c-27.01-32.36-25.13-68.04-11.54-106.42c-14.92,8.16-24.44,20.23-34.67,31.53 c-1.26,1.39-1.33,2.91-1.34,4.58c-0.15,19.16,2.31,37.86,10.63,55.36C918.31,734.97,934.15,741.17,948.73,736.25z" fill="inherit"/><path d="M995.76,666.95c4.44,0.11,8.35-3.36,9.53-8.6c1.25-5.55-0.85-10.54-3.27-15.21 c-1.52-2.93-4.57-3.44-7.83-2.22c-4.96,1.87-7.14,5.53-7.38,13.53c0.05,0.63,0.08,1.96,0.27,3.27 C987.9,663.39,991.17,666.84,995.76,666.95z" fill="inherit"/></g></g></svg>