<?xml version="1.0" encoding="UTF-8" standalone="no"?><svg xmlns="http://www.w3.org/2000/svg" xmlns:xlink="http://www.w3.org/1999/xlink" fill="#000000" height="480" preserveAspectRatio="xMidYMid meet" version="1" viewBox="16.0 16.0 480.0 480.0" width="480" zoomAndPan="magnify"><g id="change1_1"><circle cx="256" cy="256" fill="#ffeb3b" r="232"/></g><g id="change2_1"><circle cx="256" cy="256" fill="#fdd835" r="200"/></g><g id="change3_1"><path d="M256,16C123.7,16,16,123.7,16,256s107.7,240,240,240s240-107.7,240-240S388.3,16,256,16z M256,448 c-105.9,0-192-86.1-192-192S150.1,64,256,64s192,86.1,192,192S361.9,448,256,448z M439.9,159l13.9-8c6.6,12.5,12.1,25.6,16.4,39.3 l-15.5,4.1C450.9,182.1,445.9,170.3,439.9,159z M431.9,145.2c-6.9-10.9-14.7-21-23.4-30.4l11.3-11.3c9.7,10.4,18.4,21.7,25.9,33.7 L431.9,145.2z M397.2,103.5c-9.4-8.7-19.6-16.5-30.4-23.4l8-13.9c12.1,7.6,23.3,16.3,33.7,25.9L397.2,103.5z M353,72.1 c-11.2-6-23.1-10.9-35.4-14.8l4.1-15.5c13.7,4.2,26.8,9.7,39.3,16.4L353,72.1z M302.1,53.2c-12.3-2.8-25-4.5-38.1-5v-16 c14.5,0.5,28.6,2.4,42.2,5.5L302.1,53.2z M248,48.2c-13,0.5-25.7,2.2-38.1,5l-4.1-15.5c13.6-3.1,27.7-5,42.2-5.5V48.2z M194.5,57.3 c-12.3,3.8-24.2,8.8-35.4,14.8l-8-13.9c12.5-6.6,25.6-12.1,39.3-16.4L194.5,57.3z M145.2,80.1c-10.9,6.9-21,14.7-30.4,23.4 l-11.3-11.3c10.4-9.7,21.7-18.4,33.7-25.9L145.2,80.1z M103.5,114.8c-8.7,9.4-16.5,19.6-23.4,30.4l-13.9-8 c7.6-12.1,16.3-23.3,25.9-33.7L103.5,114.8z M72.1,159c-6,11.2-10.9,23.1-14.8,35.4l-15.5-4.1c4.2-13.7,9.7-26.8,16.4-39.3L72.1,159 z M53.2,209.9c-2.8,12.3-4.5,25-5,38.1h-16c0.5-14.5,2.4-28.6,5.5-42.2L53.2,209.9z M48.2,264c0.5,13,2.2,25.7,5,38.1l-15.5,4.1 c-3.1-13.6-5-27.7-5.5-42.2H48.2z M57.3,317.5c3.8,12.3,8.8,24.2,14.8,35.4l-13.9,8c-6.6-12.5-12.1-25.6-16.4-39.3L57.3,317.5z M80.1,366.8c6.9,10.9,14.7,21,23.4,30.4l-11.3,11.3c-9.7-10.4-18.4-21.7-25.9-33.7L80.1,366.8z M114.8,408.5 c9.4,8.7,19.6,16.5,30.4,23.4l-8,13.9c-12.1-7.6-23.3-16.3-33.7-25.9L114.8,408.5z M159,439.9c11.2,6,23.1,10.9,35.4,14.8l-4.1,15.5 c-13.7-4.2-26.8-9.7-39.3-16.4L159,439.9z M209.9,458.8c12.3,2.8,25,4.5,38.1,5v16c-14.5-0.5-28.6-2.4-42.2-5.5L209.9,458.8z M264,463.8c13-0.5,25.7-2.2,38.1-5l4.1,15.5c-13.6,3.1-27.7,5-42.2,5.5V463.8z M317.5,454.7c12.3-3.8,24.2-8.8,35.4-14.8l8,13.9 c-12.5,6.6-25.6,12.1-39.3,16.4L317.5,454.7z M366.8,431.9c10.9-6.9,21-14.7,30.4-23.4l11.3,11.3c-10.4,9.7-21.7,18.4-33.7,25.9 L366.8,431.9z M408.5,397.2c8.7-9.4,16.5-19.6,23.4-30.4l13.9,8c-7.6,12.1-16.3,23.3-25.9,33.7L408.5,397.2z M439.9,353 c6-11.2,10.9-23.1,14.8-35.4l15.5,4.1c-4.2,13.7-9.7,26.8-16.4,39.3L439.9,353z M458.8,302.1c2.8-12.3,4.5-25,5-38.1h16 c-0.5,14.5-2.4,28.6-5.5,42.2L458.8,302.1z M463.8,248c-0.5-13-2.2-25.7-5-38.1l15.5-4.1c3.1,13.6,5,27.7,5.5,42.2H463.8z" fill="#000000"/></g><g id="change4_1"><path d="M304,144H168v88h-32v48h32v88h136c39.8,0,72-32,72-112S343.8,144,304,144z M304,320h-88v-40h48v-48h-48v-40 h88c4,0,24,3.1,24,64S308,320,304,320z" fill="#fdd835"/></g></svg>